<?xml version="1.0" encoding="UTF-8" standalone="no"?>
<svg
   xmlns:dc="http://purl.org/dc/elements/1.1/"
   xmlns:cc="http://creativecommons.org/ns#"
   xmlns:rdf="http://www.w3.org/1999/02/22-rdf-syntax-ns#"
   xmlns:svg="http://www.w3.org/2000/svg"
   xmlns="http://www.w3.org/2000/svg"
   id="svg27"
   version="1.1"
   xml:space="preserve"
   width="922.667"
   height="533.333"><metadata
     id="metadata31"><rdf:RDF><cc:Work
         rdf:about=""><dc:format>image/svg+xml</dc:format><dc:type
           rdf:resource="http://purl.org/dc/dcmitype/StillImage" /><dc:title></dc:title></cc:Work></rdf:RDF></metadata><defs
     id="defs5"><clipPath
       clipPathUnits="userSpaceOnUse"
       id="prefix__a"><path
         id="path2"
         d="M0 400h692V0H0z" /></clipPath></defs><path
     id="path7"
     fill="#820dde"
     d="M0 533.333h922.667V0H0z" /><g
     id="g25"
     transform="matrix(1.33333 0 0 -1.33333 0 533.333)"
     clip-path="url(#prefix__a)"><path
       id="path9"
       fill="#8fedcf"
       d="M746.554-26.913 540.194 180.54c-37.473 37.672-37.313 98.588.359 136.062 37.672 37.472 98.589 37.31 136.062-.361l206.36-207.453c37.473-37.672 37.312-98.59-.36-136.061-37.671-37.474-98.588-37.313-136.061.359" /><path
       id="path11"
       stroke-miterlimit="10"
       stroke-width="5"
       stroke="#ffc9c9"
       fill="none"
       d="m667.717 2.369-206.36 207.454c-37.473 37.672-37.312 98.588.359 136.062 37.672 37.472 98.589 37.31 136.062-.361l206.36-207.453c37.474-37.672 37.312-98.59-.36-136.061-37.671-37.474-98.587-37.313-136.061.359z" /><path
       id="path13"
       fill="#8fedcf"
       d="m56.532 77.823-206.36 207.454c-37.473 37.672-37.312 98.588.36 136.062 37.671 37.472 98.588 37.312 136.061-.36l206.36-207.454c37.474-37.672 37.312-98.588-.359-136.06-37.672-37.474-98.588-37.313-136.062.358" /><path
       id="path15"
       stroke-miterlimit="10"
       stroke-width="5"
       stroke="#ffc9c9"
       fill="none"
       d="m74.552 3.492-206.36 207.453c-37.473 37.672-37.312 98.589.36 136.062 37.67 37.473 98.588 37.312 136.062-.36l206.359-207.454c37.474-37.671 37.312-98.588-.36-136.061-37.67-37.473-98.587-37.312-136.061.36z" /><path
       id="path17"
       fill="#d62687"
       d="M322.994-210.37V82.242c0 53.135 43.075 96.21 96.211 96.21 53.136 0 96.21-43.075 96.21-96.211V-210.37c0-53.136-43.075-96.21-96.21-96.21-53.137 0-96.21 43.075-96.21 96.21" /><path
       id="path19"
       stroke-miterlimit="10"
       stroke-width="5"
       stroke="#ffc9c9"
       fill="none"
       d="M278.346-208.117v292.61c0 53.137 43.075 96.212 96.21 96.21 53.137 0 96.21-43.073 96.21-96.21v-292.61c0-53.136-43.074-96.211-96.21-96.211-53.136 0-96.21 43.075-96.21 96.21z" /><path
       id="path21"
       fill="#d62687"
       d="m220.953 303.033.001 292.611c0 53.136 43.074 96.211 96.21 96.21 53.136 0 96.21-43.074 96.21-96.21V303.033c0-53.136-43.075-96.211-96.21-96.211-53.137 0-96.21 43.075-96.21 96.211" /><path
       id="path23"
       stroke-miterlimit="10"
       stroke-width="5"
       stroke="#ffc9c9"
       fill="none"
       d="m169 320.876.001 292.61c0 53.137 43.074 96.212 96.21 96.212 53.136 0 96.21-43.075 96.21-96.211V320.876c0-53.136-43.075-96.211-96.211-96.211-53.135 0-96.21 43.075-96.21 96.21z" /></g></svg>