<?xml version="1.0" encoding="UTF-8" standalone="no"?>
<svg
   xmlns:dc="http://purl.org/dc/elements/1.1/"
   xmlns:cc="http://creativecommons.org/ns#"
   xmlns:rdf="http://www.w3.org/1999/02/22-rdf-syntax-ns#"
   xmlns:svg="http://www.w3.org/2000/svg"
   xmlns="http://www.w3.org/2000/svg"
   id="svg17"
   version="1.1"
   xml:space="preserve"
   width="922.667"
   height="533.333"><metadata
     id="metadata21"><rdf:RDF><cc:Work
         rdf:about=""><dc:format>image/svg+xml</dc:format><dc:type
           rdf:resource="http://purl.org/dc/dcmitype/StillImage" /><dc:title></dc:title></cc:Work></rdf:RDF></metadata><defs
     id="defs5"><clipPath
       clipPathUnits="userSpaceOnUse"
       id="prefix__a"><path
         id="path2"
         d="M0 400h692V0H0z" /></clipPath></defs><path
     id="path7"
     fill="#00cbec"
     d="M0 533.333h922.667V0H0z" /><g
     id="g15"
     transform="matrix(1.33333 0 0 -1.33333 0 533.333)"
     clip-path="url(#prefix__a)"><path
       id="path9"
       fill="#d62687"
       d="M137.16 359.378 71.916 242.98c-5.522-9.853-2.012-22.317 7.84-27.839 9.852-5.523 22.316-2.012 27.84 7.84l65.242 116.4c5.522 9.852 2.012 22.315-7.84 27.838-9.852 5.522-22.316 2.012-27.838-7.84M602.568 194.253l-25.016-131.07c-2.117-11.095 5.16-21.805 16.254-23.923 11.094-2.117 21.804 5.16 23.922 16.254l25.017 131.072c2.117 11.094-5.16 21.804-16.254 23.921-11.094 2.118-21.804-5.159-23.922-16.254M312.506 40.382l95.541 93.153c8.087 7.885 8.251 20.832.366 28.92-7.885 8.086-20.832 8.25-28.919.365l-95.541-93.153c-8.087-7.885-8.251-20.832-.366-28.919s20.832-8.25 28.919-.366M456.881 431.882l-67.195-115.284c-5.687-9.758-2.388-22.278 7.37-27.966 9.758-5.687 22.279-2.388 27.967 7.37l67.194 115.284c5.687 9.758 2.388 22.28-7.37 27.966-9.758 5.688-22.279 2.388-27.966-7.37M-24.172 92.621 52.89-16.315c6.523-9.22 19.285-11.407 28.506-4.884 9.22 6.522 11.408 19.285 4.885 28.506L9.219 116.242c-6.523 9.221-19.286 11.407-28.506 4.885-9.22-6.522-11.407-19.284-4.885-28.505" /><path
       id="path11"
       fill="#a112ff"
       d="m194.878 257.003 89.559-98.918c7.581-8.372 20.513-9.015 28.886-1.435 8.372 7.582 9.014 20.514 1.434 28.886l-89.559 98.918c-7.581 8.372-20.513 9.015-28.886 1.434-8.372-7.58-9.015-20.513-1.434-28.885M655.28 15.789l89.56-98.919c7.58-8.372 20.513-9.015 28.886-1.435 8.372 7.582 9.014 20.514 1.434 28.886L685.6 43.24c-7.58 8.373-20.512 9.016-28.885 1.435-8.372-7.58-9.015-20.513-1.434-28.885M521.156 250.245l122.319 53.324c10.354 4.514 15.088 16.566 10.575 26.919-4.514 10.354-16.566 15.087-26.92 10.573l-122.32-53.324c-10.352-4.513-15.086-16.565-10.573-26.92 4.514-10.351 16.565-15.086 26.919-10.572M415.533 62.363l-49.99-123.72c-4.231-10.471.828-22.391 11.3-26.622 10.47-4.231 22.39.827 26.622 11.299l49.99 123.72c4.23 10.472-.828 22.39-11.3 26.623-10.472 4.23-22.391-.828-26.622-11.3M178.57 20.831 241.951-96.59c5.366-9.939 17.771-13.647 27.71-8.282 9.94 5.365 13.647 17.77 8.282 27.71L214.561 40.26c-5.365 9.94-17.77 13.648-27.71 8.283-9.939-5.364-13.647-17.771-8.282-27.71M59.648 179.566l-125.572 45.137c-10.627 3.82-22.341-1.7-26.161-12.327-3.822-10.63 1.697-22.342 12.326-26.163l125.573-45.137c10.628-3.821 22.34 1.698 26.162 12.327 3.82 10.629-1.7 22.342-12.327 26.163" /><path
       id="path13"
       fill="#8fedcf"
       d="m210.585 163.551-121.113-56.01c-10.25-4.742-14.718-16.895-9.976-27.146 4.74-10.25 16.893-14.719 27.144-9.978l121.113 56.011c10.251 4.741 14.718 16.894 9.978 27.145-4.74 10.251-16.895 14.72-27.146 9.978M539.778 154.658l-95.554 93.139c-8.088 7.883-21.035 7.717-28.92-.37-7.882-8.088-7.717-21.036.37-28.92l95.556-93.138c8.088-7.884 21.035-7.718 28.918.37 7.883 8.088 7.717 21.035-.37 28.919M332.988 297.563 299.464 426.72c-2.838 10.932-14 17.494-24.933 14.656-10.932-2.837-17.494-14-14.656-24.932l33.524-129.157c2.838-10.933 14-17.495 24.932-14.657 10.932 2.837 17.494 14 14.657 24.932M-90.473 329.056l131.604-22.042c11.14-1.866 21.682 5.651 23.548 16.791 1.866 11.14-5.652 21.682-16.79 23.547l-131.606 22.043c-11.139 1.865-21.68-5.652-23.547-16.79-1.866-11.14 5.652-21.684 16.791-23.549" /></g></svg>