<?xml version="1.0" encoding="utf-8"?>
<!-- Generator: Adobe Illustrator 25.2.3, SVG Export Plug-In . SVG Version: 6.00 Build 0)  -->
<svg version="1.1" id="Layer_1" xmlns="http://www.w3.org/2000/svg" xmlns:xlink="http://www.w3.org/1999/xlink" x="0px" y="0px"
	 viewBox="0 0 2000 1045" style="enable-background:new 0 0 2000 1045;" xml:space="preserve">
<style type="text/css">
	.st0{fill:#FFFFFF;}
	.st1{fill:#FF5543;}
	.st2{fill:#A112FF;}
	.st3{fill:#00CBEC;}
	.st4{clip-path:url(#SVGID_6_);}
	.st5{fill:#22CCEB;}
</style>
<g>
	<rect x="0" y="0" width="2000" height="1045"/>
</g>
<g>
	<g>
		<path class="st0" d="M1256.269,483.703h5.304v71.433h35.014v4.566h-40.317V483.703z"/>
		<path class="st0" d="M1301.433,532.116c0-18.06,11.739-29.177,24.149-29.177c13.123,0,21.196,9.341,21.196,25.625
			c0,1.384-0.046,2.768-0.288,4.151h-39.822c0.184,13.978,8.373,23.966,20.852,23.966c5.996,0,10.725-1.984,14.877-4.913
			l2.098,3.874c-4.358,2.722-9.34,5.443-17.459,5.443C1312.896,561.086,1301.433,550.223,1301.433,532.116z M1341.981,528.519
			c0-14.14-6.413-21.175-16.354-21.175c-9.363,0-17.829,7.935-18.982,21.175H1341.981z"/>
		<path class="st0" d="M1353.791,545.921c0-12.306,11.095-18.163,35.729-20.886c0.162-8.511-2.168-17.622-13.055-17.622
			c-7.474,0-13.932,3.69-17.646,6.505l-2.353-3.782c3.921-2.768,11.602-7.197,20.598-7.197c13.123,0,17.552,9.526,17.552,21.381
			v35.382h-4.312l-0.554-7.196h-0.254c-5.65,4.567-12.386,8.58-19.651,8.58C1361.08,561.086,1353.791,556.312,1353.791,545.921z
			 M1389.52,547.755V528.91c-22.742,2.629-30.516,7.912-30.516,16.746c0,7.945,5.374,11.002,11.74,11.002
			C1377.087,556.658,1382.669,553.591,1389.52,547.755z"/>
		<path class="st0" d="M1412.08,504.323h4.312l0.553,10.333h0.254c3.748-6.804,9.168-11.717,15.754-11.717
			c2.018,0,3.667,0.254,5.489,1.153l-1.153,4.613c-1.868-0.669-2.883-0.923-5.005-0.923c-4.982,0-10.887,3.783-15.108,14.254v37.666
			h-5.096V504.323z"/>
		<path class="st0" d="M1446.332,504.323h4.312l0.553,8.58h0.254c5.651-5.628,11.418-9.964,19.053-9.964
			c11.439,0,16.744,6.943,16.744,21.243v35.521h-5.096v-34.852c0-11.74-3.715-17.322-12.617-17.322
			c-6.598,0-11.371,3.483-18.107,10.403v41.771h-5.096V504.323z"/>
	</g>
	<g>
		<g>
			<g>
				<g>
					<path class="st1" d="M576.715,582.104c-6.532,1.201-12.801-3.121-14.002-9.653l-17.868-97.19
						c-1.201-6.532,3.121-12.801,9.653-14.002s12.801,3.121,14.002,9.653l17.868,97.19
						C587.569,574.634,583.247,580.903,576.715,582.104z"/>
				</g>
			</g>
			<g>
				<g>
					<path class="st2" d="M530.175,565.543c-4.088,0.751-8.453-0.639-11.341-4.031c-4.306-5.056-3.698-12.646,1.359-16.953
						l75.235-64.069c5.056-4.306,12.646-3.698,16.953,1.359c4.306,5.056,3.698,12.646-1.359,16.953l-75.235,64.069
						C534.122,564.289,532.182,565.174,530.175,565.543z"/>
				</g>
			</g>
			<g>
				<g>
					<path class="st3" d="M614.322,550.073c-2.007,0.369-4.134,0.232-6.194-0.501l-93.103-33.121
						c-6.257-2.226-9.526-9.103-7.299-15.361c2.226-6.257,9.103-9.526,15.361-7.299l93.103,33.121
						c6.257,2.226,9.526,9.103,7.299,15.361C621.995,546.469,618.409,549.322,614.322,550.073z"/>
				</g>
			</g>
		</g>
		<g>
			<path class="st0" d="M692.19,538.24c0-2.322-0.853-4.21-2.56-5.665c-1.707-1.451-3.851-2.778-6.427-3.977
				c-2.579-1.199-5.377-2.432-8.39-3.704c-3.013-1.27-5.812-2.833-8.388-4.684c-2.579-1.853-4.723-4.157-6.43-6.919
				c-1.707-2.759-2.56-6.281-2.56-10.569c0-3.704,0.618-6.917,1.853-9.642c1.233-2.723,2.995-4.993,5.283-6.809
				c2.288-1.814,4.993-3.16,8.118-4.029c3.121-0.872,6.608-1.309,10.459-1.309c4.43,0,8.608,0.382,12.53,1.144
				c3.922,0.762,7.153,1.872,9.697,3.322l-4.686,12.53c-1.599-1.016-3.995-1.943-7.191-2.778c-3.196-0.833-6.645-1.254-10.349-1.254
				c-3.487,0-6.155,0.693-8.008,2.071c-1.851,1.382-2.778,3.233-2.778,5.558c0,2.178,0.853,3.995,2.56,5.446
				c1.705,1.455,3.849,2.798,6.427,4.032c2.579,1.236,5.375,2.505,8.39,3.814c3.013,1.307,5.809,2.888,8.388,4.739
				c2.576,1.853,4.72,4.139,6.427,6.864c1.707,2.723,2.56,6.121,2.56,10.187c0,4.068-0.67,7.571-2.016,10.514
				c-1.343,2.943-3.231,5.393-5.665,7.354c-2.432,1.961-5.375,3.414-8.823,4.359c-3.453,0.943-7.246,1.416-11.386,1.416
				c-5.448,0-10.242-0.51-14.383-1.526c-4.139-1.016-7.189-2.032-9.15-3.05l4.794-12.747c0.799,0.435,1.833,0.908,3.105,1.416
				c1.27,0.508,2.705,0.979,4.304,1.416c1.595,0.435,3.286,0.799,5.066,1.089c1.778,0.291,3.613,0.435,5.501,0.435
				c4.43,0,7.828-0.744,10.187-2.233C691.009,543.562,692.19,541.29,692.19,538.24z"/>
		</g>
		<g>
			<path class="st0" d="M713.389,531.486c0-9.223,2.251-16.323,6.757-21.3c4.501-4.974,10.82-7.464,18.957-7.464
				c4.357,0,8.134,0.691,11.331,2.071c3.194,1.38,5.846,3.322,7.953,5.83c2.105,2.505,3.684,5.539,4.739,9.095
				c1.053,3.56,1.579,7.482,1.579,11.768c0,9.226-2.233,16.326-6.7,21.3c-4.466,4.977-10.768,7.464-18.902,7.464
				c-4.359,0-8.136-0.691-11.331-2.071c-3.199-1.38-5.867-3.322-8.008-5.83c-2.144-2.505-3.741-5.537-4.794-9.095
				C713.915,539.695,713.389,535.771,713.389,531.486z M727.99,531.486c0,2.398,0.217,4.613,0.654,6.647
				c0.435,2.034,1.089,3.812,1.961,5.338c0.872,1.524,2.016,2.707,3.432,3.54c1.416,0.837,3.105,1.254,5.066,1.254
				c3.704,0,6.464-1.343,8.281-4.032c1.814-2.686,2.723-6.935,2.723-12.747c0-5.011-0.835-9.061-2.505-12.147
				c-1.673-3.087-4.505-4.631-8.498-4.631c-3.487,0-6.21,1.309-8.171,3.922C728.969,521.244,727.99,525.53,727.99,531.486z"/>
		</g>
		<g>
			<path class="st0" d="M785.945,504.248v30.942c0,4.432,0.526,7.626,1.581,9.587c1.05,1.961,3.105,2.942,6.155,2.942
				c2.686,0,4.919-0.799,6.7-2.398c1.78-1.597,3.105-3.558,3.977-5.883v-35.191h14.163v37.914c0,2.979,0.146,5.903,0.437,8.77
				c0.288,2.872,0.725,5.466,1.307,7.791h-10.676l-2.505-8.063h-0.437c-1.67,2.762-3.995,5.05-6.972,6.864
				c-2.979,1.814-6.503,2.725-10.569,2.725c-2.762,0-5.231-0.366-7.409-1.091c-2.178-0.723-3.995-1.922-5.448-3.595
				c-1.453-1.67-2.56-3.922-3.322-6.754c-0.762-2.833-1.144-6.391-1.144-10.676v-33.884H785.945z"/>
		</g>
		<g>
			<path class="st0" d="M859.724,517.54c-2.251-0.799-4.286-1.199-6.1-1.199c-2.544,0-4.668,0.673-6.375,2.016
				c-1.707,1.345-2.851,3.071-3.432,5.176v35.191h-14.163v-54.475h11.003l1.636,7.191h0.435c1.233-2.686,2.904-4.757,5.011-6.21
				c2.107-1.453,4.576-2.181,7.409-2.181c1.888,0,5.765,0.901,7.972,1.875L859.724,517.54z"/>
		</g>
		<g>
			<path class="st0" d="M905.571,555.346c-2.178,1.599-4.812,2.814-7.898,3.65c-3.089,0.835-6.265,1.254-9.532,1.254
				c-4.359,0-8.047-0.691-11.058-2.071c-3.016-1.38-5.466-3.322-7.354-5.83c-1.89-2.505-3.254-5.537-4.087-9.095
				c-0.835-3.558-1.254-7.482-1.254-11.768c0-9.223,2.071-16.323,6.21-21.3c4.141-4.974,10.168-7.464,18.087-7.464
				c3.993,0,7.208,0.327,9.642,0.982c2.432,0.654,4.629,1.49,6.59,2.505l-3.377,11.548c-1.67-0.799-3.322-1.416-4.956-1.851
				c-1.634-0.437-3.505-0.654-5.61-0.654c-3.924,0-6.903,1.29-8.935,3.869c-2.034,2.579-3.05,6.7-3.05,12.365
				c0,2.325,0.254,4.466,0.762,6.427c0.508,1.961,1.27,3.67,2.288,5.121c1.016,1.455,2.343,2.599,3.977,3.432
				c1.634,0.837,3.542,1.254,5.72,1.254c2.396,0,4.43-0.309,6.1-0.927c1.67-0.616,3.16-1.361,4.469-2.233L905.571,555.346z"/>
		</g>
		<g>
			<path class="st0" d="M955.44,554.04c-2.181,1.741-5.141,3.212-8.88,4.411c-3.743,1.199-7.718,1.798-11.93,1.798
				c-8.789,0-15.218-2.56-19.284-7.681c-4.068-5.121-6.102-12.148-6.102-21.083c0-9.587,2.288-16.779,6.864-21.572
				c4.576-4.794,11.003-7.191,19.284-7.191c2.759,0,5.448,0.366,8.063,1.091c2.615,0.725,4.938,1.924,6.972,3.595
				c2.034,1.67,3.668,3.922,4.903,6.754c1.233,2.833,1.851,6.356,1.851,10.569c0,1.524-0.092,3.16-0.272,4.903
				c-0.181,1.741-0.453,3.558-0.817,5.446h-32.685c0.22,4.576,1.398,8.027,3.542,10.351c2.142,2.325,5.61,3.487,10.404,3.487
				c2.979,0,5.647-0.453,8.008-1.364c2.359-0.906,4.157-1.833,5.393-2.778L955.44,554.04z M935.174,514.053
				c-3.704,0-6.448,1.11-8.226,3.325c-1.78,2.215-2.851,5.173-3.215,8.878h20.266c0.288-3.922-0.311-6.935-1.798-9.043
				C940.711,515.108,938.368,514.053,935.174,514.053z"/>
		</g>
		<g>
			<path class="st0" d="M1012.125,558.723c0,7.917-2.144,13.745-6.43,17.486s-10.278,5.613-17.975,5.613
				c-5.231,0-9.354-0.366-12.367-1.091c-3.013-0.725-5.283-1.49-6.809-2.288l2.942-11.221c1.67,0.654,3.613,1.306,5.828,1.961
				c2.215,0.654,4.958,0.982,8.226,0.982c4.94,0,8.299-1.073,10.079-3.215c1.778-2.144,2.668-5.139,2.668-8.988v-3.487h-0.435
				c-2.544,3.414-7.045,5.121-13.509,5.121c-7.047,0-12.296-2.178-15.744-6.537c-3.45-4.359-5.176-11.184-5.176-20.483
				c0-9.731,2.325-17.106,6.974-22.117c4.647-5.011,11.402-7.516,20.263-7.516c4.647,0,8.807,0.325,12.475,0.979
				c3.668,0.654,6.663,1.416,8.99,2.288V558.723z M988.155,548.264c2.759,0,4.885-0.616,6.375-1.853
				c1.487-1.233,2.631-3.084,3.432-5.555v-24.515c-2.254-0.943-5.05-1.416-8.39-1.416c-3.633,0-6.466,1.364-8.498,4.087
				c-2.034,2.723-3.05,7.066-3.05,13.019c0,5.304,0.872,9.333,2.615,12.093C982.382,546.885,984.887,548.264,988.155,548.264z"/>
		</g>
		<g>
			<path class="st0" d="M1053.1,517.54c-2.251-0.799-4.286-1.199-6.1-1.199c-2.544,0-4.668,0.673-6.375,2.016
				c-1.707,1.345-2.851,3.071-3.432,5.176v35.191h-14.163v-54.475h11.003l1.636,7.191h0.435c1.233-2.686,2.904-4.757,5.011-6.21
				s4.576-2.181,7.409-2.181c1.888,0,4.032,0.4,6.43,1.199L1053.1,517.54z"/>
		</g>
		<g>
			<path class="st0" d="M1060.057,506.947c2.906-1.309,4.981-1.882,8.976-2.644c3.993-0.764,8.171-1.144,12.53-1.144
				c3.775,0,6.935,0.453,9.477,1.361c2.542,0.908,4.558,2.199,6.047,3.867c1.487,1.673,2.542,3.67,3.16,5.993
				c0.615,2.327,0.927,4.94,0.927,7.846c0,3.196-0.11,6.411-0.327,9.642c-0.22,3.233-0.346,6.411-0.382,9.532
				c-0.037,3.123,0.055,6.155,0.272,9.097s0.762,5.72,1.634,8.336h-11.548l-2.288-7.519h-0.545c-1.453,2.252-3.469,4.194-6.047,5.83
				c-2.579,1.634-5.901,2.451-9.969,2.451c-2.542,0-4.83-0.382-6.862-1.144c-2.034-0.762-3.778-1.853-5.231-3.27
				c-1.453-1.416-2.579-3.084-3.377-5.011c-0.801-1.924-1.199-4.084-1.199-6.482c0-3.341,0.744-6.155,2.233-8.443
				c1.49-2.288,3.631-4.141,6.43-5.558c2.794-1.416,6.137-2.396,10.022-2.94s8.226-0.709,13.019-0.492
				c0.508-4.066,0.22-6.988-0.872-8.77c-1.089-1.778-3.524-2.668-7.299-2.668c-2.833,0-5.828,0.291-8.988,0.872
				c-3.16,0.581-4.382,0.882-6.416,1.827L1060.057,506.947z M1076.659,547.937c2.833,0,5.082-0.634,6.755-1.906
				c1.67-1.27,2.904-2.631,3.704-4.087v-7.082c-2.251-0.217-4.411-0.254-6.482-0.11c-2.071,0.146-3.906,0.474-5.503,0.982
				c-1.597,0.508-2.869,1.236-3.812,2.178c-0.945,0.945-1.416,2.144-1.416,3.597c0,2.034,0.599,3.613,1.796,4.739
				C1072.9,547.374,1074.552,547.937,1076.659,547.937z"/>
		</g>
		<g>
			<path class="st0" d="M1111.619,504.248h10.351l1.634,6.537h0.435c1.888-2.759,4.123-4.794,6.702-6.102
				c2.576-1.307,5.72-1.961,9.425-1.961c6.825,0,11.946,2.162,15.36,6.484c3.414,4.322,5.121,11.276,5.121,20.863
				c0,4.649-0.545,8.844-1.634,12.585c-1.089,3.741-2.707,6.917-4.849,9.532c-2.144,2.615-4.757,4.613-7.844,5.993
				c-3.089,1.38-6.629,2.071-10.624,2.071c-2.252,0-4.105-0.165-5.556-0.492c-1.455-0.325-2.906-0.853-4.359-1.579v22.334h-14.163
				V504.248z M1135.914,514.707c-2.759,0-4.919,0.691-6.482,2.071c-1.563,1.38-2.778,3.45-3.649,6.21v22.661
				c1.016,0.801,2.126,1.435,3.322,1.906c1.199,0.474,2.78,0.709,4.741,0.709c4.066,0,7.116-1.435,9.152-4.304
				c2.032-2.869,3.05-7.608,3.05-14.218c0-4.794-0.801-8.498-2.398-11.113C1142.053,516.016,1139.472,514.707,1135.914,514.707z"/>
		</g>
		<g>
			<path class="st0" d="M1201.931,558.723v-30.942c0-4.43-0.618-7.626-1.853-9.587c-1.235-1.961-3.487-2.943-6.754-2.943
				c-2.398,0-4.594,0.817-6.592,2.453c-1.997,1.634-3.322,3.723-3.977,6.263v34.756h-14.163v-76.264h14.163v27.89h0.437
				c1.744-2.322,3.883-4.176,6.427-5.555c2.542-1.38,5.775-2.071,9.697-2.071c2.759,0,5.192,0.366,7.299,1.091
				c2.105,0.725,3.867,1.924,5.283,3.595c1.416,1.67,2.469,3.94,3.16,6.809c0.691,2.869,1.036,6.411,1.036,10.621v33.884H1201.931z"
				/>
		</g>
	</g>
</g>
<g>
	<defs>
		<rect id="SVGID_1_" y="-0.125" width="2000" height="1045.251"/>
	</defs>
	<clipPath id="SVGID_2_">
		<use xlink:href="#SVGID_1_"  style="overflow:visible;"/>
	</clipPath>
</g>
<g>
	<defs>
		<rect id="SVGID_3_" y="-0.125" width="2000" height="1045.251"/>
	</defs>
	<clipPath id="SVGID_4_">
		<use xlink:href="#SVGID_3_"  style="overflow:visible;"/>
	</clipPath>
</g>
<g>
	<defs>
		<rect id="SVGID_5_" x="0" y="0" width="2000" height="1045"/>
	</defs>
	<clipPath id="SVGID_6_">
		<use xlink:href="#SVGID_5_"  style="overflow:visible;"/>
	</clipPath>
	<g class="st4">
		<g>
			<path class="st5" d="M811.172,1119.059c-5.067,0-10.113-1.121-14.831-3.349c-11.208-5.292-18.806-16.26-19.829-28.626
				c-0.5-6.054,0.613-12.172,3.22-17.692l64.367-134.679c3.964-8.396,10.967-14.752,19.715-17.89
				c8.75-3.137,18.195-2.679,26.599,1.288c11.208,5.292,18.806,16.26,19.83,28.626c0.501,6.053-0.613,12.171-3.22,17.692
				l-0.004,0.009l-64.364,134.67c-3.964,8.396-10.967,14.752-19.715,17.89C819.103,1118.374,815.131,1119.059,811.172,1119.059z
				 M875.58,918.733c-3.508,0-7.026,0.606-10.426,1.825c-7.751,2.78-13.955,8.412-17.471,15.857l-64.367,134.679
				c-2.306,4.884-3.293,10.303-2.85,15.663c0.907,10.957,7.639,20.677,17.569,25.365c7.445,3.515,15.815,3.921,23.566,1.141
				c7.751-2.779,13.956-8.411,17.471-15.856l64.365-134.673c2.309-4.893,3.295-10.31,2.852-15.669
				c-0.907-10.957-7.639-20.676-17.57-25.365C884.54,919.726,880.068,918.733,875.58,918.733z"/>
		</g>
		<g>
			<path class="st1" d="M752.063,938.606c-4.971,0-10.017-1.069-14.802-3.328c-11.208-5.292-18.806-16.26-19.829-28.626
				c-0.5-6.054,0.613-12.172,3.22-17.692l64.367-134.679c3.964-8.396,10.967-14.752,19.715-17.89
				c8.749-3.138,18.196-2.68,26.599,1.288c11.208,5.292,18.806,16.26,19.83,28.626c0.501,6.053-0.613,12.171-3.22,17.692
				l-0.004,0.009l-64.364,134.67C777.647,931.235,765.114,938.606,752.063,938.606z M816.5,738.301
				c-3.508,0-7.026,0.606-10.426,1.825c-7.751,2.78-13.956,8.412-17.471,15.857l-64.367,134.679
				c-2.306,4.884-3.293,10.303-2.85,15.663c0.907,10.957,7.639,20.677,17.569,25.365c7.445,3.515,15.815,3.921,23.566,1.141
				c7.751-2.779,13.956-8.411,17.471-15.856l64.364-134.67c2.31-4.893,3.297-10.312,2.854-15.671
				c-0.907-10.957-7.639-20.676-17.57-25.365C825.46,739.294,820.988,738.301,816.5,738.301z"/>
		</g>
		<g>
			<path class="st0" d="M635.573,1182.106c-5.067,0-10.113-1.121-14.831-3.349c-11.208-5.292-18.807-16.26-19.83-28.626
				c-0.5-6.054,0.613-12.172,3.22-17.692l64.368-134.679c3.964-8.396,10.967-14.752,19.715-17.89
				c8.749-3.135,18.195-2.68,26.599,1.288c11.208,5.292,18.807,16.26,19.83,28.626c0.501,6.052-0.612,12.17-3.22,17.692
				l-0.004,0.009l-64.364,134.67c-3.964,8.396-10.967,14.752-19.715,17.89C643.503,1181.421,639.532,1182.106,635.573,1182.106z
				 M699.98,981.78c-3.507,0-7.026,0.606-10.426,1.826c-7.751,2.779-13.955,8.411-17.471,15.856l-64.368,134.679
				c-2.306,4.884-3.293,10.303-2.85,15.663c0.907,10.957,7.639,20.677,17.57,25.365c7.446,3.515,15.815,3.922,23.566,1.141
				c7.751-2.779,13.956-8.411,17.471-15.856l64.368-134.679c2.307-4.889,3.293-10.306,2.85-15.663
				c-0.907-10.957-7.639-20.676-17.57-25.365C708.94,982.774,704.469,981.78,699.98,981.78z"/>
		</g>
		<g>
			<path class="st5" d="M574.516,1005.804c-5.067,0-10.113-1.121-14.832-3.349c-11.208-5.292-18.806-16.26-19.829-28.626
				c-0.5-6.054,0.613-12.172,3.22-17.692l64.368-134.679c3.964-8.396,10.967-14.752,19.715-17.89
				c8.749-3.136,18.196-2.679,26.599,1.288c11.208,5.292,18.807,16.261,19.83,28.627c0.501,6.052-0.613,12.17-3.22,17.691
				l-0.004,0.009L606,985.854c-3.964,8.396-10.967,14.752-19.715,17.89C582.447,1005.119,578.475,1005.804,574.516,1005.804z
				 M638.924,805.478c-3.508,0-7.026,0.606-10.426,1.826c-7.751,2.779-13.956,8.411-17.471,15.856l-64.368,134.679
				c-2.306,4.884-3.293,10.303-2.85,15.663c0.907,10.957,7.639,20.677,17.569,25.365c7.447,3.515,15.814,3.921,23.566,1.141
				c7.751-2.779,13.956-8.411,17.471-15.856l64.364-134.67c2.31-4.893,3.297-10.312,2.854-15.67
				c-0.906-10.958-7.639-20.677-17.57-25.366C647.884,806.472,643.412,805.478,638.924,805.478z"/>
		</g>
		<g>
			<path class="st0" d="M398.916,1068.851c-5.067,0-10.113-1.121-14.831-3.349c-11.208-5.292-18.806-16.26-19.829-28.626
				c-0.501-6.053,0.612-12.172,3.22-17.693l64.367-134.678c3.964-8.396,10.967-14.752,19.715-17.89
				c8.75-3.135,18.195-2.68,26.599,1.288c11.208,5.292,18.807,16.261,19.83,28.627c0.501,6.051-0.613,12.169-3.22,17.691
				l-0.004,0.009l-64.364,134.67c-3.964,8.396-10.967,14.752-19.716,17.89C406.847,1068.166,402.875,1068.851,398.916,1068.851z
				 M463.324,868.525c-3.508,0-7.026,0.606-10.426,1.826c-7.75,2.779-13.955,8.411-17.471,15.856l-64.367,134.679
				c-2.307,4.884-3.293,10.303-2.85,15.663c0.907,10.958,7.639,20.677,17.569,25.365c7.446,3.515,15.815,3.922,23.566,1.141
				c7.751-2.779,13.956-8.411,17.471-15.856l64.364-134.67c2.31-4.894,3.297-10.313,2.854-15.67
				c-0.907-10.958-7.64-20.677-17.57-25.366C472.284,869.519,467.812,868.525,463.324,868.525z"/>
		</g>
		<g>
			<path class="st5" d="M337.86,892.549c-5.067,0-10.113-1.121-14.832-3.349c-11.208-5.292-18.806-16.26-19.829-28.626
				c-0.5-6.054,0.613-12.172,3.22-17.692l64.368-134.679c3.964-8.396,10.967-14.752,19.715-17.89
				c8.749-3.135,18.195-2.679,26.599,1.288c11.208,5.292,18.807,16.261,19.83,28.627c0.501,6.052-0.613,12.17-3.22,17.691
				l-0.004,0.009l-64.364,134.67c-3.964,8.396-10.967,14.752-19.715,17.89C345.791,891.864,341.819,892.549,337.86,892.549z
				 M402.267,692.224c-3.507,0-7.026,0.606-10.426,1.826c-7.751,2.779-13.956,8.411-17.471,15.856l-64.368,134.679
				c-2.306,4.884-3.293,10.303-2.85,15.663c0.907,10.957,7.639,20.677,17.569,25.365c7.446,3.514,15.815,3.921,23.566,1.141
				c7.751-2.779,13.955-8.411,17.471-15.856l64.368-134.679c2.307-4.889,3.293-10.305,2.85-15.662
				c-0.906-10.958-7.639-20.677-17.57-25.366C411.227,693.217,406.756,692.224,402.267,692.224z"/>
		</g>
		<g>
			<path class="st1" d="M221.34,1136.028c-5.067,0-10.113-1.121-14.831-3.349c-11.208-5.292-18.806-16.26-19.829-28.626
				c-0.501-6.052,0.613-12.171,3.22-17.692l64.367-134.679c3.964-8.396,10.967-14.752,19.715-17.89
				c8.75-3.135,18.196-2.679,26.599,1.288c11.208,5.292,18.807,16.261,19.83,28.627c0.501,6.052-0.613,12.17-3.22,17.691
				l-0.004,0.009l-64.364,134.67c-3.964,8.396-10.967,14.752-19.715,17.89C229.271,1135.343,225.299,1136.028,221.34,1136.028z
				 M285.747,935.702c-3.508,0-7.026,0.606-10.426,1.826c-7.75,2.779-13.955,8.411-17.471,15.856l-64.367,134.679
				c-2.306,4.885-3.293,10.303-2.85,15.663c0.907,10.957,7.639,20.677,17.569,25.365c7.445,3.515,15.816,3.921,23.566,1.141
				c7.751-2.779,13.955-8.411,17.471-15.856l64.364-134.67c2.31-4.893,3.297-10.312,2.854-15.67
				c-0.907-10.958-7.64-20.677-17.57-25.366C294.707,936.696,290.236,935.702,285.747,935.702z"/>
		</g>
		<g>
			<path class="st2" d="M45.741,1199.075c-5.067,0-10.113-1.121-14.832-3.349c-11.208-5.292-18.806-16.26-19.829-28.626
				c-0.5-6.054,0.613-12.172,3.22-17.692l64.368-134.679c3.964-8.396,10.967-14.752,19.715-17.89
				c8.749-3.135,18.195-2.679,26.599,1.288c11.208,5.292,18.807,16.261,19.83,28.627c0.501,6.052-0.613,12.17-3.22,17.691
				l-0.004,0.009l-64.364,134.67c-3.964,8.396-10.967,14.752-19.715,17.89C53.671,1198.39,49.699,1199.075,45.741,1199.075z
				 M110.148,998.749c-3.507,0-7.026,0.606-10.426,1.826c-7.751,2.779-13.955,8.411-17.471,15.856L17.883,1151.11
				c-2.306,4.884-3.293,10.303-2.85,15.663c0.907,10.957,7.639,20.677,17.569,25.365c7.445,3.515,15.814,3.921,23.566,1.141
				c7.751-2.779,13.955-8.411,17.471-15.856l64.368-134.679c2.307-4.889,3.293-10.305,2.85-15.662
				c-0.906-10.958-7.639-20.677-17.57-25.366C119.108,999.743,114.637,998.749,110.148,998.749z"/>
		</g>
		<g>
			<path class="st0" d="M162.26,955.596c-5.067,0-10.113-1.121-14.831-3.349c-11.208-5.292-18.806-16.26-19.829-28.626
				c-0.501-6.052,0.613-12.171,3.22-17.692l64.367-134.679c3.964-8.396,10.967-14.752,19.715-17.89
				c8.75-3.135,18.195-2.68,26.599,1.288c11.208,5.292,18.807,16.261,19.83,28.627c0.501,6.051-0.613,12.169-3.22,17.691
				l-0.004,0.009l-64.364,134.67c-3.964,8.396-10.967,14.752-19.715,17.89C170.191,954.911,166.219,955.596,162.26,955.596z
				 M226.667,755.271c-3.508,0-7.026,0.606-10.426,1.826c-7.75,2.779-13.955,8.411-17.471,15.856l-64.367,134.679
				c-2.306,4.885-3.293,10.303-2.85,15.663c0.907,10.957,7.639,20.677,17.569,25.365c7.446,3.515,15.815,3.922,23.566,1.141
				c7.751-2.779,13.955-8.411,17.471-15.856l64.364-134.67c2.31-4.894,3.297-10.313,2.854-15.67
				c-0.907-10.958-7.64-20.677-17.57-25.366C235.627,756.264,231.156,755.271,226.667,755.271z"/>
		</g>
		<g>
			<path class="st1" d="M-15.316,1022.773c-5.067,0-10.113-1.121-14.832-3.349c-11.208-5.292-18.806-16.26-19.829-28.626
				c-0.5-6.054,0.613-12.172,3.22-17.692L17.61,838.428c3.964-8.396,10.967-14.752,19.716-17.89
				c8.75-3.135,18.195-2.679,26.599,1.288c11.208,5.292,18.806,16.261,19.83,28.627c0.501,6.052-0.613,12.17-3.22,17.691
				l-0.004,0.009l-64.364,134.67c-3.964,8.396-10.967,14.752-19.715,17.89C-7.385,1022.088-11.357,1022.773-15.316,1022.773z
				 M49.091,822.448c-3.507,0-7.026,0.606-10.426,1.826c-7.751,2.779-13.955,8.411-17.471,15.856l-64.367,134.679
				c-2.306,4.884-3.293,10.303-2.85,15.663c0.907,10.957,7.639,20.677,17.569,25.365c7.446,3.514,15.815,3.921,23.566,1.141
				c7.751-2.779,13.955-8.411,17.471-15.856l64.368-134.679c2.307-4.889,3.293-10.305,2.85-15.662
				c-0.907-10.958-7.639-20.677-17.57-25.366C58.051,823.441,53.58,822.448,49.091,822.448z"/>
		</g>
		<g>
			<path class="st2" d="M158.613,319.23c-4.971,0-10.016-1.069-14.801-3.328c-11.208-5.292-18.806-16.261-19.829-28.626
				c-0.501-6.052,0.613-12.17,3.22-17.692l64.367-134.678c8.187-17.342,28.966-24.792,46.314-16.601
				c11.208,5.292,18.807,16.261,19.83,28.627c0.501,6.052-0.613,12.169-3.22,17.691l-0.004,0.008L190.127,299.3
				C184.198,311.858,171.665,319.23,158.613,319.23z M223.078,118.943c-11.564,0-22.668,6.532-27.924,17.664l-64.367,134.678
				c-2.306,4.885-3.293,10.304-2.85,15.663c0.907,10.958,7.639,20.677,17.569,25.366c15.367,7.255,33.779,0.655,41.037-14.716
				l64.364-134.67c2.31-4.893,3.297-10.312,2.854-15.67c-0.907-10.958-7.64-20.678-17.57-25.366
				C231.952,119.89,227.481,118.943,223.078,118.943z"/>
		</g>
		<g>
			<path class="st5" d="M1277.221,108.989c-4.97,0-10.016-1.069-14.801-3.328c-11.209-5.292-18.807-16.261-19.83-28.626
				c-0.501-6.052,0.612-12.17,3.22-17.692l64.367-134.678c3.965-8.396,10.968-14.752,19.715-17.89
				c8.752-3.137,18.198-2.679,26.599,1.288c11.209,5.292,18.808,16.261,19.831,28.626c0.501,6.052-0.612,12.17-3.22,17.692
				l-0.004,0.008l-64.363,134.67C1302.806,101.617,1290.273,108.989,1277.221,108.989z M1341.659-91.316
				c-3.508,0-7.026,0.606-10.426,1.826c-7.751,2.779-13.956,8.411-17.471,15.857l-64.367,134.678
				c-2.306,4.885-3.293,10.304-2.85,15.663c0.907,10.958,7.639,20.677,17.569,25.366c15.37,7.256,33.781,0.655,41.038-14.716
				l64.367-134.678c2.307-4.888,3.293-10.305,2.85-15.662c-0.907-10.958-7.639-20.677-17.57-25.366
				C1350.619-90.323,1346.148-91.316,1341.659-91.316z"/>
		</g>
		<g>
			<path class="st0" d="M1101.652,172.057c-5.068,0-10.112-1.121-14.831-3.349c-11.209-5.292-18.807-16.26-19.83-28.626
				c-0.501-6.052,0.612-12.17,3.22-17.692l64.367-134.678c3.965-8.396,10.968-14.752,19.715-17.89
				c8.751-3.137,18.197-2.679,26.599,1.288c11.209,5.292,18.808,16.261,19.831,28.626c0.501,6.052-0.612,12.17-3.22,17.692
				l-0.004,0.008l-64.364,134.67c-3.964,8.396-10.967,14.752-19.715,17.89C1109.583,171.372,1105.61,172.057,1101.652,172.057z
				 M1166.06-28.27c-3.508,0-7.026,0.606-10.426,1.826c-7.751,2.779-13.956,8.411-17.471,15.857l-64.367,134.678
				c-2.306,4.885-3.293,10.304-2.85,15.663c0.907,10.958,7.639,20.678,17.569,25.366c7.444,3.514,15.814,3.92,23.567,1.141
				c7.751-2.78,13.955-8.411,17.47-15.857l64.368-134.678c2.307-4.888,3.293-10.305,2.85-15.662
				c-0.907-10.958-7.639-20.677-17.57-25.366C1175.019-27.276,1170.548-28.27,1166.06-28.27z"/>
		</g>
		<g>
			<path class="st1" d="M924.045,239.213c-4.971,0-10.016-1.069-14.801-3.328c-11.208-5.292-18.806-16.261-19.829-28.626
				c-0.5-6.053,0.613-12.171,3.22-17.692l64.367-134.678c8.188-17.342,28.967-24.792,46.314-16.601
				c11.209,5.292,18.808,16.261,19.831,28.627c0.501,6.052-0.612,12.169-3.22,17.691l-0.004,0.008l-64.364,134.67
				C949.63,231.842,937.097,239.213,924.045,239.213z M988.51,38.926c-11.564,0-22.668,6.532-27.924,17.664l-64.367,134.678
				c-2.306,4.884-3.293,10.303-2.85,15.663c0.907,10.957,7.639,20.677,17.569,25.365c15.367,7.255,33.78,0.655,41.037-14.716
				l64.368-134.678c2.307-4.888,3.293-10.305,2.85-15.662c-0.907-10.958-7.639-20.678-17.57-25.366
				C997.384,39.873,992.913,38.926,988.51,38.926z"/>
		</g>
		<g>
			<path class="st2" d="M748.475,302.281c-5.067,0-10.112-1.121-14.831-3.349c-11.208-5.292-18.807-16.261-19.83-28.626
				c-0.5-6.053,0.613-12.171,3.22-17.692l64.368-134.678c3.964-8.396,10.967-14.752,19.715-17.889
				c8.749-3.136,18.194-2.679,26.599,1.288c11.208,5.292,18.807,16.261,19.83,28.627c0.501,6.052-0.613,12.169-3.22,17.691
				l-0.004,0.008l-64.364,134.67c-3.964,8.396-10.967,14.752-19.715,17.89C756.407,301.596,752.434,302.281,748.475,302.281z
				 M812.883,101.955c-3.508,0-7.026,0.606-10.426,1.826c-7.751,2.779-13.956,8.411-17.471,15.857l-64.368,134.678
				c-2.306,4.884-3.293,10.303-2.85,15.663c0.907,10.958,7.639,20.677,17.57,25.365c7.446,3.515,15.816,3.921,23.566,1.141
				c7.751-2.78,13.956-8.411,17.471-15.857l64.364-134.67c2.31-4.893,3.297-10.312,2.854-15.67
				c-0.907-10.958-7.639-20.678-17.57-25.366C821.843,102.948,817.372,101.955,812.883,101.955z"/>
		</g>
		<g>
			<path class="st0" d="M864.965,58.781c-4.971,0-10.016-1.069-14.801-3.328c-11.208-5.292-18.806-16.261-19.829-28.626
				c-0.5-6.053,0.613-12.171,3.22-17.692l64.367-134.678c8.188-17.341,28.966-24.793,46.315-16.601
				c11.208,5.292,18.806,16.261,19.83,28.627c0.501,6.052-0.613,12.169-3.22,17.691l-0.004,0.008l-64.364,134.67
				C890.55,51.41,878.017,58.781,864.965,58.781z M929.43-141.506c-11.564,0-22.668,6.532-27.924,17.664L837.139,10.837
				c-2.306,4.884-3.293,10.303-2.85,15.663c0.907,10.957,7.639,20.677,17.569,25.365c15.367,7.255,33.78,0.655,41.037-14.716
				l64.364-134.67c2.31-4.893,3.297-10.312,2.854-15.67c-0.907-10.958-7.639-20.678-17.57-25.366
				C938.304-140.559,933.833-141.506,929.43-141.506z"/>
		</g>
		<g>
			<path class="st1" d="M687.419,125.979c-5.067,0-10.113-1.121-14.831-3.349c-11.208-5.292-18.806-16.261-19.829-28.626
				c-0.5-6.053,0.613-12.171,3.22-17.692l64.368-134.678c3.964-8.396,10.967-14.752,19.715-17.889
				c8.75-3.136,18.195-2.679,26.599,1.288c11.208,5.292,18.807,16.261,19.83,28.627c0.501,6.052-0.613,12.169-3.22,17.691
				l-0.004,0.008l-64.364,134.67c-3.964,8.396-10.967,14.752-19.715,17.89C695.35,125.294,691.378,125.979,687.419,125.979z
				 M751.827-74.347c-3.508,0-7.026,0.606-10.426,1.826c-7.751,2.779-13.956,8.411-17.471,15.857L659.562,78.014
				c-2.306,4.884-3.293,10.303-2.85,15.663c0.907,10.957,7.639,20.677,17.569,25.365c7.446,3.515,15.814,3.92,23.566,1.141
				c7.751-2.78,13.956-8.411,17.471-15.857l64.364-134.67c2.31-4.893,3.297-10.312,2.854-15.67
				c-0.907-10.958-7.639-20.678-17.57-25.366C760.787-73.354,756.316-74.347,751.827-74.347z"/>
		</g>
		<g>
			<path class="st2" d="M511.79,189.006c-4.971,0-10.016-1.069-14.802-3.328c-11.208-5.292-18.806-16.26-19.829-28.626
				c-0.501-6.053,0.612-12.171,3.22-17.692L544.746,4.68c8.188-17.342,28.965-24.792,46.314-16.601
				c11.208,5.292,18.807,16.261,19.83,28.627c0.501,6.051-0.613,12.168-3.22,17.691l-0.004,0.008l-64.364,134.67
				C537.374,181.634,524.841,189.006,511.79,189.006z M576.254-11.282c-11.564,0-22.668,6.532-27.924,17.664l-64.367,134.678
				c-2.307,4.884-3.293,10.303-2.85,15.663c0.907,10.958,7.639,20.678,17.569,25.366c15.369,7.256,33.779,0.655,41.037-14.716
				l64.364-134.67c2.31-4.894,3.297-10.312,2.854-15.67c-0.907-10.958-7.64-20.678-17.57-25.366
				C585.128-10.334,580.657-11.282,576.254-11.282z"/>
		</g>
		<g>
			<path class="st5" d="M334.243,256.203c-5.067,0-10.113-1.121-14.831-3.349c-11.208-5.292-18.806-16.261-19.829-28.626
				c-0.501-6.052,0.613-12.17,3.22-17.692L367.17,71.857c8.188-17.342,28.967-24.793,46.314-16.601
				c11.208,5.292,18.807,16.261,19.83,28.627c0.501,6.051-0.613,12.168-3.22,17.691l-0.004,0.008l-64.364,134.67
				c-3.964,8.396-10.967,14.753-19.715,17.89C342.174,255.519,338.202,256.203,334.243,256.203z M398.678,55.895
				c-11.564,0-22.668,6.532-27.924,17.664l-64.367,134.678c-2.306,4.885-3.293,10.304-2.85,15.663
				c0.907,10.958,7.639,20.677,17.569,25.366c7.445,3.516,15.815,3.921,23.566,1.141c7.751-2.779,13.955-8.411,17.471-15.857
				l64.364-134.67c2.31-4.894,3.297-10.312,2.854-15.67c-0.907-10.958-7.64-20.678-17.57-25.366
				C407.552,56.843,403.081,55.895,398.678,55.895z"/>
		</g>
		<g>
			<path class="st1" d="M450.763,12.724c-5.067,0-10.113-1.121-14.831-3.349c-11.208-5.292-18.806-16.261-19.829-28.626
				c-0.5-6.053,0.613-12.171,3.22-17.692l64.368-134.678c3.964-8.396,10.967-14.752,19.715-17.889
				c8.749-3.136,18.195-2.679,26.599,1.288c11.208,5.292,18.807,16.261,19.83,28.627c0.501,6.052-0.613,12.169-3.22,17.691
				l-0.004,0.008L482.246-7.226c-3.964,8.396-10.967,14.752-19.715,17.89C458.694,12.039,454.721,12.724,450.763,12.724z
				 M515.171-187.602c-3.508,0-7.026,0.606-10.426,1.826c-7.751,2.779-13.955,8.411-17.471,15.857L422.906-35.241
				c-2.306,4.884-3.293,10.303-2.85,15.663c0.907,10.957,7.639,20.677,17.569,25.365c7.446,3.514,15.816,3.921,23.566,1.141
				c7.751-2.779,13.956-8.411,17.471-15.857l64.368-134.678c2.307-4.888,3.293-10.305,2.85-15.662
				c-0.907-10.958-7.639-20.678-17.57-25.366C524.13-186.609,519.66-187.602,515.171-187.602z"/>
		</g>
		<g>
			<path class="st2" d="M275.163,75.771c-5.067,0-10.113-1.121-14.831-3.349c-11.208-5.292-18.806-16.261-19.829-28.626
				c-0.501-6.052,0.613-12.17,3.22-17.692l64.367-134.678c8.187-17.342,28.966-24.793,46.314-16.601
				c11.208,5.292,18.807,16.261,19.83,28.627c0.501,6.051-0.613,12.168-3.22,17.691l-0.004,0.008l-64.364,134.67
				c-3.964,8.396-10.967,14.753-19.715,17.89C283.094,75.087,279.122,75.771,275.163,75.771z M339.598-124.536
				c-11.564,0-22.668,6.532-27.924,17.664L247.307,27.806c-2.306,4.885-3.293,10.304-2.85,15.663
				c0.907,10.958,7.639,20.677,17.569,25.366c7.446,3.516,15.815,3.921,23.566,1.141c7.751-2.779,13.956-8.411,17.471-15.857
				l64.364-134.67c2.31-4.894,3.297-10.312,2.854-15.67c-0.907-10.958-7.64-20.678-17.57-25.366
				C348.472-123.589,344.001-124.536,339.598-124.536z"/>
		</g>
		<g>
			<path class="st0" d="M-19.231,386.285c-5.067,0-10.113-1.121-14.831-3.349c-11.208-5.292-18.806-16.261-19.829-28.626
				c-0.5-6.053,0.613-12.171,3.22-17.693l64.368-134.678c3.964-8.396,10.967-14.752,19.715-17.889
				c8.75-3.137,18.195-2.68,26.599,1.288c11.208,5.292,18.807,16.26,19.83,28.626c0.501,6.052-0.613,12.17-3.22,17.692l-0.004,0.008
				l-64.364,134.67c-3.964,8.396-10.967,14.752-19.715,17.89C-11.3,385.6-15.273,386.285-19.231,386.285z M45.176,185.959
				c-3.508,0-7.026,0.606-10.426,1.825c-7.751,2.78-13.955,8.411-17.471,15.857L-47.088,338.32
				c-2.306,4.885-3.293,10.304-2.85,15.664c0.907,10.957,7.639,20.676,17.569,25.365c7.446,3.515,15.815,3.92,23.566,1.141
				c7.751-2.78,13.955-8.411,17.471-15.857l64.368-134.678c2.307-4.888,3.293-10.305,2.85-15.662
				c-0.907-10.958-7.639-20.678-17.57-25.366C54.137,186.953,49.665,185.959,45.176,185.959z"/>
		</g>
		<g>
			<path class="st2" d="M-78.311,205.853c-5.067,0-10.113-1.121-14.831-3.349c-11.208-5.292-18.806-16.261-19.829-28.626
				c-0.5-6.053,0.613-12.171,3.22-17.693l64.368-134.678c3.964-8.396,10.967-14.752,19.715-17.889
				C-16.92,0.482-7.474,0.938,0.93,4.906c11.208,5.292,18.807,16.26,19.83,28.626c0.501,6.052-0.613,12.17-3.22,17.692l-0.004,0.008
				l-64.364,134.67c-3.964,8.396-10.967,14.752-19.715,17.89C-70.38,205.169-74.353,205.853-78.311,205.853z M-13.904,5.527
				c-3.508,0-7.026,0.606-10.426,1.825c-7.751,2.78-13.955,8.411-17.471,15.857l-64.368,134.678
				c-2.306,4.885-3.293,10.304-2.85,15.664c0.907,10.957,7.639,20.676,17.569,25.365c7.445,3.516,15.814,3.92,23.566,1.141
				c7.751-2.78,13.955-8.411,17.471-15.857l64.364-134.67c2.31-4.893,3.297-10.312,2.854-15.67
				C15.899,22.902,9.167,13.182-0.764,8.494C-4.943,6.521-9.415,5.527-13.904,5.527z"/>
		</g>
		<g>
			<path class="st5" d="M97.289,142.806c-5.067,0-10.113-1.121-14.831-3.349c-11.208-5.292-18.806-16.261-19.829-28.626
				c-0.5-6.053,0.613-12.171,3.22-17.692L130.216-41.54c3.964-8.396,10.967-14.752,19.715-17.89
				c8.749-3.136,18.196-2.68,26.599,1.288c11.208,5.292,18.807,16.261,19.83,28.626c0.501,6.052-0.613,12.17-3.22,17.692
				l-0.004,0.008l-64.364,134.67c-3.964,8.396-10.967,14.752-19.715,17.89C105.22,142.121,101.247,142.806,97.289,142.806z
				 M161.696-57.52c-3.508,0-7.026,0.606-10.426,1.826c-7.751,2.779-13.955,8.411-17.471,15.857L69.432,94.841
				c-2.306,4.884-3.293,10.303-2.85,15.663c0.907,10.958,7.639,20.677,17.569,25.366c7.446,3.515,15.814,3.92,23.566,1.141
				c7.751-2.78,13.955-8.411,17.471-15.857l64.368-134.678c2.307-4.888,3.293-10.305,2.85-15.662
				c-0.906-10.958-7.639-20.677-17.57-25.366C170.656-56.527,166.185-57.52,161.696-57.52z"/>
		</g>
		<g>
			<path class="st2" d="M1815.269,1148.182c-5.067,0-10.112-1.121-14.831-3.349c-11.209-5.292-18.807-16.261-19.83-28.626
				c-0.5-6.054,0.613-12.173,3.22-17.693l64.368-134.679c3.964-8.396,10.967-14.751,19.715-17.889
				c8.749-3.138,18.195-2.681,26.599,1.287c11.209,5.292,18.807,16.261,19.83,28.627c0.501,6.052-0.612,12.171-3.22,17.692
				l-0.004,0.009l-64.363,134.669c-3.964,8.396-10.968,14.753-19.715,17.891C1823.2,1147.497,1819.228,1148.182,1815.269,1148.182z
				 M1879.678,947.856c-3.508,0-7.027,0.606-10.427,1.826c-7.751,2.78-13.955,8.412-17.47,15.856l-64.368,134.679
				c-2.305,4.884-3.292,10.303-2.85,15.664c0.907,10.957,7.639,20.676,17.569,25.365c7.446,3.515,15.815,3.921,23.567,1.141
				c7.751-2.78,13.956-8.411,17.471-15.857l64.367-134.678c2.307-4.889,3.293-10.305,2.85-15.663
				c-0.907-10.958-7.639-20.677-17.569-25.366C1888.638,948.85,1884.167,947.856,1879.678,947.856z"/>
		</g>
		<g>
			<path class="st0" d="M1637.693,1215.359c-5.067,0-10.112-1.121-14.831-3.349c-11.209-5.292-18.807-16.261-19.83-28.626
				c-0.5-6.054,0.613-12.173,3.22-17.693l64.368-134.679c3.964-8.396,10.967-14.751,19.715-17.889
				c8.749-3.138,18.197-2.68,26.599,1.288c11.209,5.291,18.807,16.26,19.83,28.626c0.501,6.053-0.612,12.171-3.22,17.692
				l-0.004,0.009l-64.363,134.669c-3.964,8.396-10.968,14.753-19.715,17.891C1645.624,1214.675,1641.651,1215.359,1637.693,1215.359
				z M1702.1,1015.034c-3.508,0-7.026,0.606-10.426,1.825c-7.751,2.78-13.955,8.411-17.47,15.856l-64.368,134.679
				c-2.305,4.884-3.292,10.303-2.85,15.664c0.907,10.957,7.639,20.676,17.569,25.365c7.445,3.514,15.815,3.921,23.567,1.141
				c7.751-2.78,13.956-8.412,17.471-15.857l64.364-134.672c2.31-4.893,3.296-10.31,2.853-15.669
				c-0.907-10.958-7.639-20.677-17.569-25.365C1711.061,1016.028,1706.589,1015.034,1702.1,1015.034z"/>
		</g>
		<g>
			<path class="st2" d="M1578.613,1034.928c-5.067,0-10.112-1.121-14.831-3.349c-11.209-5.292-18.807-16.26-19.83-28.626
				c-0.501-6.052,0.612-12.171,3.22-17.693l64.367-134.679c3.965-8.396,10.968-14.752,19.715-17.889
				c8.75-3.137,18.196-2.68,26.599,1.288c11.209,5.291,18.808,16.259,19.831,28.626c0.501,6.053-0.612,12.171-3.22,17.692
				l-0.004,0.009l-64.364,134.669c-3.964,8.396-10.967,14.753-19.715,17.891C1586.544,1034.243,1582.572,1034.928,1578.613,1034.928
				z M1643.02,834.602c-3.507,0-7.025,0.606-10.425,1.825c-7.751,2.78-13.956,8.411-17.471,15.856l-64.367,134.679
				c-2.306,4.886-3.293,10.305-2.85,15.664c0.907,10.958,7.639,20.677,17.569,25.365c7.445,3.514,15.816,3.921,23.567,1.141
				c7.751-2.78,13.955-8.412,17.47-15.857l64.368-134.678c2.307-4.889,3.293-10.305,2.85-15.663
				c-0.907-10.958-7.639-20.677-17.57-25.365C1651.981,835.596,1647.509,834.602,1643.02,834.602z"/>
		</g>
		<g>
			<path class="st0" d="M1401.037,1102.105c-5.067,0-10.112-1.121-14.831-3.349c-11.209-5.292-18.807-16.26-19.83-28.626
				c-0.501-6.052,0.612-12.171,3.22-17.692l64.367-134.68c3.964-8.396,10.968-14.751,19.715-17.889
				c8.751-3.137,18.197-2.68,26.599,1.288c11.209,5.292,18.808,16.26,19.831,28.626c0.501,6.053-0.612,12.171-3.22,17.692
				l-0.004,0.009l-64.364,134.67c-3.964,8.396-10.967,14.752-19.715,17.89C1408.968,1101.42,1404.996,1102.105,1401.037,1102.105z
				 M1465.444,901.779c-3.507,0-7.026,0.606-10.425,1.825c-7.751,2.78-13.956,8.412-17.471,15.856l-64.367,134.68
				c-2.306,4.885-3.293,10.303-2.85,15.663c0.907,10.958,7.639,20.677,17.569,25.365c7.446,3.515,15.816,3.92,23.567,1.141
				c7.751-2.779,13.955-8.411,17.47-15.856l64.368-134.679c2.307-4.889,3.293-10.305,2.85-15.663
				c-0.907-10.957-7.639-20.676-17.57-25.365C1474.404,902.772,1469.932,901.779,1465.444,901.779z"/>
		</g>
		<g>
			<path class="st1" d="M1225.437,1165.152c-5.067,0-10.112-1.121-14.831-3.349c-11.209-5.292-18.807-16.26-19.83-28.626
				c-0.501-6.053,0.612-12.171,3.22-17.692l64.367-134.679c3.965-8.396,10.967-14.752,19.715-17.89
				c8.748-3.137,18.196-2.679,26.599,1.288c11.208,5.292,18.807,16.26,19.831,28.626c0.501,6.053-0.612,12.171-3.22,17.692
				l-0.004,0.009l-64.364,134.67c-3.964,8.396-10.967,14.752-19.715,17.89C1233.369,1164.467,1229.396,1165.152,1225.437,1165.152z
				 M1289.844,964.826c-3.508,0-7.025,0.606-10.425,1.825c-7.751,2.78-13.956,8.412-17.471,15.857l-64.367,134.679
				c-2.306,4.885-3.293,10.303-2.85,15.663c0.907,10.958,7.639,20.677,17.569,25.365c7.445,3.514,15.814,3.921,23.566,1.141
				c7.751-2.779,13.956-8.411,17.471-15.856l64.368-134.679c2.307-4.889,3.293-10.305,2.85-15.663
				c-0.908-10.957-7.64-20.677-17.57-25.365C1298.805,965.819,1294.333,964.826,1289.844,964.826z"/>
		</g>
		<g>
			<path class="st2" d="M1341.957,921.673c-5.068,0-10.114-1.121-14.831-3.349c-11.209-5.292-18.808-16.26-19.831-28.626
				c-0.5-6.055,0.613-12.173,3.22-17.692l64.368-134.68c3.964-8.396,10.967-14.751,19.715-17.889
				c8.749-3.138,18.197-2.68,26.599,1.288c11.209,5.292,18.807,16.261,19.83,28.626c0.501,6.053-0.612,12.171-3.22,17.692
				l-0.004,0.009l-64.363,134.67c-3.964,8.396-10.968,14.752-19.715,17.89C1349.887,920.988,1345.916,921.673,1341.957,921.673z
				 M1406.364,721.347c-3.508,0-7.026,0.606-10.426,1.825c-7.751,2.78-13.955,8.411-17.47,15.856l-64.368,134.68
				c-2.305,4.883-3.292,10.302-2.85,15.663c0.907,10.957,7.639,20.677,17.57,25.365c7.447,3.514,15.816,3.92,23.566,1.141
				c7.751-2.779,13.956-8.411,17.471-15.856l64.364-134.673c2.31-4.893,3.296-10.31,2.853-15.668
				c-0.907-10.957-7.639-20.676-17.569-25.365C1415.325,722.34,1410.853,721.347,1406.364,721.347z"/>
		</g>
		<g>
			<path class="st5" d="M1047.861,1232.329c-5.067,0-10.112-1.121-14.831-3.349c-11.209-5.292-18.807-16.26-19.83-28.626
				c-0.501-6.052,0.612-12.171,3.22-17.692l64.367-134.679c3.965-8.396,10.968-14.752,19.715-17.89
				c8.751-3.138,18.197-2.68,26.599,1.288c11.209,5.292,18.808,16.26,19.831,28.626c0.501,6.053-0.612,12.171-3.22,17.692
				l-0.004,0.009l-64.364,134.67c-3.964,8.396-10.967,14.752-19.715,17.89C1055.792,1231.644,1051.82,1232.329,1047.861,1232.329z
				 M1112.268,1032.003c-3.507,0-7.025,0.606-10.425,1.825c-7.751,2.78-13.956,8.412-17.471,15.857l-64.367,134.679
				c-2.306,4.885-3.293,10.303-2.85,15.663c0.907,10.958,7.639,20.677,17.569,25.365c7.446,3.515,15.817,3.921,23.567,1.141
				c7.751-2.779,13.955-8.411,17.47-15.856l64.368-134.679c2.307-4.889,3.293-10.305,2.85-15.663
				c-0.907-10.957-7.639-20.676-17.57-25.365C1121.229,1032.996,1116.756,1032.003,1112.268,1032.003z"/>
		</g>
		<g>
			<path class="st0" d="M1164.381,988.85c-5.068,0-10.113-1.121-14.831-3.349c-11.209-5.292-18.807-16.26-19.83-28.626
				c-0.501-6.054,0.612-12.173,3.22-17.693l64.367-134.678c3.965-8.396,10.967-14.752,19.715-17.89
				c8.748-3.137,18.197-2.68,26.598,1.288c11.208,5.292,18.807,16.26,19.831,28.626c0.501,6.051-0.612,12.169-3.22,17.692
				l-0.004,0.009l-64.364,134.67c-3.964,8.396-10.968,14.752-19.715,17.89C1172.311,988.165,1168.34,988.85,1164.381,988.85z
				 M1228.788,788.524c-3.508,0-7.025,0.606-10.425,1.825c-7.751,2.78-13.956,8.412-17.471,15.857l-64.367,134.679
				c-2.306,4.883-3.293,10.302-2.85,15.663c0.907,10.958,7.639,20.677,17.569,25.365c7.447,3.515,15.816,3.92,23.566,1.141
				c7.751-2.779,13.956-8.411,17.471-15.856l64.368-134.679c2.307-4.891,3.292-10.307,2.85-15.663
				c-0.908-10.957-7.64-20.677-17.57-25.365C1237.749,789.517,1233.276,788.524,1228.788,788.524z"/>
		</g>
		<g>
			<path class="st1" d="M988.781,1051.897c-5.067,0-10.113-1.121-14.831-3.349c-11.208-5.292-18.806-16.26-19.829-28.626
				c-0.501-6.053,0.612-12.172,3.22-17.693l64.368-134.678c3.964-8.396,10.967-14.752,19.715-17.89
				c8.748-3.138,18.197-2.68,26.599,1.288c11.209,5.292,18.807,16.261,19.83,28.626c0.501,6.053-0.612,12.171-3.22,17.692
				l-0.004,0.009l-64.363,134.67c-3.964,8.396-10.968,14.752-19.716,17.89C996.712,1051.212,992.74,1051.897,988.781,1051.897z
				 M1053.188,851.571c-3.508,0-7.026,0.606-10.426,1.825c-7.751,2.78-13.955,8.412-17.47,15.857l-64.368,134.679
				c-2.307,4.884-3.293,10.303-2.85,15.663c0.907,10.958,7.639,20.677,17.569,25.365c7.446,3.515,15.815,3.922,23.566,1.141
				c7.751-2.779,13.956-8.411,17.471-15.856l64.364-134.673c2.31-4.893,3.296-10.31,2.853-15.669
				c-0.907-10.957-7.639-20.676-17.569-25.365C1062.149,852.564,1057.677,851.571,1053.188,851.571z"/>
		</g>
		<g>
			<path class="st5" d="M1990.838,1085.114c-4.97,0-10.015-1.068-14.8-3.327c-11.209-5.293-18.807-16.261-19.83-28.627
				c-0.501-6.052,0.612-12.17,3.22-17.692l64.367-134.679c8.188-17.34,28.966-24.793,46.314-16.601
				c11.208,5.292,18.807,16.261,19.831,28.627c0.501,6.052-0.612,12.17-3.22,17.691l-0.004,0.009l-64.364,134.67
				C2016.424,1077.743,2003.89,1085.114,1990.838,1085.114z M2055.304,884.827c-11.564,0-22.668,6.531-27.925,17.664
				l-64.367,134.679c-2.306,4.886-3.293,10.304-2.85,15.663c0.907,10.957,7.639,20.677,17.569,25.366
				c15.37,7.256,33.779,0.654,41.037-14.716l64.368-134.679c2.307-4.889,3.293-10.305,2.85-15.662
				c-0.907-10.958-7.639-20.678-17.57-25.366C2064.178,885.775,2059.707,884.827,2055.304,884.827z"/>
		</g>
		<g>
			<path class="st2" d="M1931.759,904.683c-4.971,0-10.016-1.069-14.801-3.328c-11.209-5.294-18.807-16.262-19.83-28.627
				c-0.5-6.054,0.613-12.172,3.22-17.692l64.367-134.679c8.188-17.341,28.965-24.792,46.315-16.601
				c11.209,5.292,18.807,16.261,19.83,28.627c0.501,6.052-0.612,12.17-3.22,17.691l-0.004,0.009l-64.363,134.67
				C1957.344,897.311,1944.81,904.683,1931.759,904.683z M1996.224,704.395c-11.564,0-22.669,6.531-27.925,17.664l-64.367,134.679
				c-2.305,4.884-3.292,10.303-2.85,15.663c0.907,10.957,7.639,20.676,17.57,25.366c15.368,7.257,33.78,0.656,41.037-14.716
				l64.364-134.673c2.31-4.893,3.296-10.31,2.853-15.668c-0.907-10.958-7.639-20.677-17.569-25.366
				C2005.099,705.343,2000.627,704.395,1996.224,704.395z"/>
		</g>
		<g>
			<path class="st5" d="M1754.183,971.86c-4.971,0-10.016-1.069-14.801-3.328c-11.209-5.294-18.807-16.262-19.83-28.627
				c-0.5-6.054,0.613-12.172,3.22-17.692l64.368-134.679c3.964-8.395,10.967-14.751,19.715-17.889
				c8.749-3.138,18.195-2.68,26.598,1.287c11.209,5.292,18.807,16.261,19.83,28.627c0.501,6.052-0.612,12.17-3.22,17.691
				l-0.004,0.009l-64.363,134.67C1779.768,964.488,1767.234,971.86,1754.183,971.86z M1818.621,771.554
				c-3.508,0-7.027,0.606-10.427,1.826c-7.751,2.78-13.955,8.411-17.47,15.856l-64.368,134.679
				c-2.305,4.884-3.292,10.303-2.85,15.663c0.907,10.957,7.639,20.676,17.57,25.366c15.366,7.256,33.78,0.655,41.037-14.716
				l64.364-134.673c2.31-4.893,3.296-10.31,2.853-15.668c-0.907-10.958-7.639-20.677-17.569-25.366
				C1827.581,772.548,1823.11,771.554,1818.621,771.554z"/>
		</g>
		<g>
			<path class="st1" d="M1928.142,268.337c-4.971,0-10.016-1.069-14.801-3.328c-11.209-5.293-18.807-16.262-19.83-28.626
				c-0.5-6.054,0.613-12.172,3.22-17.693L1961.1,84.011c3.964-8.396,10.967-14.752,19.715-17.889
				c8.749-3.136,18.197-2.68,26.599,1.288c11.209,5.292,18.807,16.26,19.83,28.626c0.501,6.052-0.612,12.17-3.22,17.692
				l-0.004,0.008l-64.363,134.67C1953.727,260.965,1941.193,268.337,1928.142,268.337z M1992.58,68.031
				c-3.507,0-7.026,0.606-10.426,1.825c-7.751,2.78-13.955,8.411-17.47,15.857l-64.368,134.678
				c-2.305,4.884-3.292,10.303-2.85,15.664c0.907,10.957,7.639,20.676,17.569,25.365c15.374,7.258,33.782,0.654,41.038-14.717
				l64.367-134.678c2.307-4.888,3.293-10.305,2.85-15.662c-0.907-10.958-7.639-20.678-17.569-25.366
				C2001.541,69.025,1997.069,68.031,1992.58,68.031z"/>
		</g>
		<g>
			<path class="st5" d="M1750.566,335.514c-4.97,0-10.016-1.069-14.801-3.328c-11.209-5.293-18.807-16.262-19.83-28.626
				c-0.5-6.054,0.613-12.172,3.22-17.692l64.368-134.679c3.964-8.396,10.967-14.752,19.715-17.889
				c8.748-3.137,18.197-2.68,26.599,1.288c11.209,5.292,18.807,16.261,19.83,28.626c0.501,6.052-0.612,12.17-3.22,17.692
				l-0.004,0.008l-64.363,134.67C1776.151,328.142,1763.618,335.514,1750.566,335.514z M1815.004,135.208
				c-3.507,0-7.026,0.606-10.426,1.825c-7.751,2.78-13.955,8.411-17.47,15.857l-64.368,134.679
				c-2.305,4.883-3.292,10.302-2.85,15.663c0.907,10.957,7.639,20.676,17.569,25.365c15.37,7.257,33.781,0.655,41.038-14.716
				l64.367-134.678c2.307-4.888,3.293-10.305,2.85-15.662c-0.907-10.958-7.639-20.677-17.569-25.366
				C1823.964,136.202,1819.492,135.208,1815.004,135.208z"/>
		</g>
		<g>
			<path class="st0" d="M1867.086,92.035c-4.97,0-10.016-1.069-14.801-3.328c-11.209-5.293-18.807-16.262-19.83-28.626
				c-0.501-6.052,0.612-12.17,3.22-17.692l64.367-134.679c3.965-8.396,10.968-14.752,19.715-17.889
				c8.751-3.137,18.196-2.68,26.599,1.288c11.209,5.292,18.808,16.261,19.831,28.626c0.501,6.052-0.612,12.17-3.22,17.692
				l-0.004,0.008L1898.6,72.105C1892.671,84.664,1880.138,92.035,1867.086,92.035z M1931.524-108.27
				c-3.508,0-7.026,0.606-10.426,1.825c-7.751,2.78-13.956,8.411-17.471,15.857l-64.367,134.679
				c-2.306,4.885-3.293,10.304-2.85,15.663c0.907,10.957,7.639,20.677,17.569,25.366c15.37,7.257,33.781,0.655,41.038-14.716
				l64.367-134.678c2.307-4.888,3.293-10.305,2.85-15.662c-0.907-10.958-7.639-20.677-17.57-25.366
				C1940.483-107.277,1936.012-108.27,1931.524-108.27z"/>
		</g>
		<g>
			<path class="st1" d="M1691.516,155.103c-5.068,0-10.113-1.121-14.831-3.349c-11.209-5.292-18.807-16.261-19.83-28.626
				c-0.501-6.052,0.612-12.17,3.22-17.692l64.367-134.679c3.965-8.396,10.968-14.752,19.715-17.889
				c8.75-3.137,18.197-2.679,26.598,1.288c11.209,5.292,18.808,16.261,19.831,28.626c0.501,6.052-0.612,12.17-3.22,17.692
				l-0.004,0.008L1723,135.152c-3.964,8.396-10.967,14.752-19.715,17.89C1699.447,154.418,1695.475,155.103,1691.516,155.103z
				 M1755.924-45.223c-3.508,0-7.026,0.606-10.426,1.825c-7.751,2.78-13.956,8.411-17.471,15.857l-64.367,134.679
				c-2.306,4.885-3.293,10.304-2.85,15.663c0.907,10.958,7.639,20.677,17.569,25.366c7.446,3.515,15.817,3.919,23.567,1.141
				c7.751-2.78,13.955-8.411,17.47-15.857l64.368-134.678c2.307-4.888,3.293-10.305,2.85-15.662
				c-0.907-10.958-7.639-20.677-17.57-25.366C1764.884-44.23,1760.413-45.223,1755.924-45.223z"/>
		</g>
		<g>
			<path class="st0" d="M1574.966,398.561c-4.97,0-10.016-1.069-14.801-3.328c-11.209-5.292-18.807-16.261-19.83-28.626
				c-0.501-6.052,0.612-12.17,3.22-17.692l64.367-134.679c3.965-8.396,10.968-14.752,19.715-17.889
				c8.751-3.138,18.197-2.68,26.599,1.288c11.209,5.292,18.808,16.261,19.831,28.626c0.501,6.052-0.612,12.17-3.22,17.692
				l-0.004,0.008l-64.363,134.67C1600.552,391.189,1588.019,398.561,1574.966,398.561z M1639.404,198.255
				c-3.508,0-7.026,0.606-10.426,1.825c-7.751,2.78-13.956,8.411-17.471,15.857l-64.367,134.679
				c-2.306,4.885-3.293,10.304-2.85,15.663c0.907,10.958,7.639,20.677,17.569,25.366c15.371,7.256,33.781,0.655,41.038-14.716
				l64.367-134.678c2.307-4.888,3.293-10.305,2.85-15.662c-0.907-10.958-7.639-20.677-17.57-25.366
				C1648.364,199.249,1643.893,198.255,1639.404,198.255z"/>
		</g>
		<g>
			<path class="st5" d="M1513.94,222.28c-5.068,0-10.112-1.121-14.831-3.349c-11.209-5.292-18.807-16.26-19.83-28.626
				c-0.501-6.052,0.612-12.17,3.22-17.692l64.367-134.678c3.965-8.396,10.968-14.752,19.715-17.89
				c8.751-3.137,18.198-2.679,26.599,1.288c11.209,5.292,18.808,16.261,19.831,28.626c0.501,6.052-0.612,12.17-3.22,17.692
				l-0.004,0.008l-64.364,134.67c-3.964,8.396-10.967,14.752-19.715,17.89C1521.871,221.595,1517.899,222.28,1513.94,222.28z
				 M1578.348,21.954c-3.508,0-7.026,0.606-10.426,1.826c-7.751,2.779-13.956,8.411-17.471,15.857l-64.367,134.678
				c-2.306,4.885-3.293,10.304-2.85,15.663c0.907,10.958,7.639,20.678,17.569,25.366c7.445,3.514,15.815,3.921,23.567,1.141
				c7.751-2.78,13.955-8.411,17.47-15.857l64.368-134.678c2.307-4.888,3.293-10.305,2.85-15.662
				c-0.907-10.958-7.639-20.677-17.57-25.366C1587.308,22.947,1582.836,21.954,1578.348,21.954z"/>
		</g>
		<g>
			<path class="st1" d="M1454.83,41.828c-4.971,0-10.016-1.069-14.801-3.328c-11.209-5.292-18.808-16.261-19.831-28.626
				c-0.5-6.054,0.613-12.172,3.22-17.692l64.368-134.678c3.964-8.396,10.967-14.752,19.715-17.89
				c8.749-3.136,18.195-2.68,26.599,1.288c11.209,5.292,18.807,16.261,19.83,28.626c0.501,6.052-0.612,12.17-3.22,17.692
				l-0.004,0.008l-64.363,134.67C1480.415,34.456,1467.882,41.828,1454.83,41.828z M1519.267-158.478
				c-3.507,0-7.026,0.606-10.426,1.826c-7.751,2.779-13.955,8.411-17.47,15.857L1427.003-6.117
				c-2.305,4.883-3.292,10.302-2.85,15.663c0.907,10.957,7.639,20.677,17.57,25.365c15.373,7.258,33.78,0.654,41.037-14.716
				l64.367-134.678c2.307-4.888,3.293-10.305,2.85-15.662c-0.907-10.958-7.639-20.677-17.569-25.366
				C1528.228-157.485,1523.756-158.478,1519.267-158.478z"/>
		</g>
		<g>
			<path class="st0" d="M1338.31,285.306c-4.971,0-10.016-1.069-14.801-3.328c-11.209-5.292-18.807-16.26-19.83-28.626
				c-0.501-6.052,0.612-12.17,3.22-17.692l64.367-134.678c3.965-8.396,10.967-14.752,19.715-17.89
				c8.749-3.136,18.196-2.68,26.599,1.288c11.208,5.292,18.807,16.261,19.831,28.626c0.501,6.052-0.612,12.17-3.22,17.692
				l-0.004,0.008l-64.364,134.67C1363.895,277.934,1351.362,285.306,1338.31,285.306z M1402.747,85.001
				c-3.507,0-7.026,0.606-10.425,1.826c-7.751,2.779-13.956,8.411-17.471,15.857l-64.367,134.678
				c-2.306,4.885-3.293,10.304-2.85,15.663c0.907,10.958,7.639,20.678,17.569,25.366c15.37,7.257,33.78,0.655,41.037-14.716
				l64.368-134.678c2.307-4.888,3.293-10.305,2.85-15.662c-0.908-10.958-7.64-20.677-17.57-25.366
				C1411.708,85.994,1407.237,85.001,1402.747,85.001z"/>
		</g>
	</g>
</g>
</svg>
