<svg width="429" height="56" viewBox="0 0 429 56" fill="none" xmlns="http://www.w3.org/2000/svg">
<path d="M35.2 53.6C32.4 54.1 29.7 52.3 29.2 49.5L21.6 8.00001C21.1 5.20001 22.9 2.50001 25.7 2.00001C28.5 1.50001 31.2 3.30001 31.7 6.10001L39.3 47.6C39.9 50.4 38 53.1 35.2 53.6Z" fill="#FF5543"/>
<path d="M15.3 46.6C13.6 46.9 11.7 46.3 10.5 44.9C8.7 42.7 8.9 39.5 11.1 37.7L43.2 10.3C45.4 8.50001 48.6 8.70001 50.4 10.9C52.2 13.1 52 16.3 49.8 18.1L17.7 45.4C17 46 16.2 46.4 15.3 46.6Z" fill="#A112FF"/>
<path d="M51.3 40C50.4 40.2 49.5 40.1 48.7 39.8L8.90001 25.6C6.20001 24.6 4.80001 21.7 5.80001 19C6.80001 16.3 9.70001 14.9 12.4 15.9L52.2 30C54.9 30.9 56.3 33.9 55.3 36.6C54.6 38.4 53 39.6 51.3 40Z" fill="#00CBEC"/>
<path d="M84.5 34.9C84.5 33.9 84.1 33.1 83.4 32.5C82.7 31.9 81.8 31.3 80.7 30.8C79.6 30.3 78.4 29.8 77.1 29.2C75.8 28.7 74.6 28 73.5 27.2C72.4 26.4 71.5 25.4 70.8 24.2C70.1 23 69.7 21.5 69.7 19.7C69.7 18.1 70 16.7 70.5 15.6C71 14.4 71.8 13.5 72.8 12.7C73.8 11.9 74.9 11.4 76.3 11C77.6 10.6 79.1 10.4 80.8 10.4C82.7 10.4 84.5 10.6 86.1 10.9C87.8 11.2 89.2 11.7 90.2 12.3L88.2 17.7C87.5 17.3 86.5 16.9 85.1 16.5C83.7 16.1 82.3 16 80.7 16C79.2 16 78.1 16.3 77.3 16.9C76.5 17.5 76.1 18.3 76.1 19.3C76.1 20.2 76.5 21 77.2 21.6C77.9 22.2 78.8 22.8 79.9 23.3C81 23.8 82.2 24.4 83.5 24.9C84.8 25.5 86 26.1 87.1 26.9C88.2 27.7 89.1 28.7 89.8 29.8C90.5 31 90.9 32.4 90.9 34.1C90.9 35.8 90.6 37.3 90 38.6C89.4 39.9 88.6 40.9 87.6 41.7C86.6 42.5 85.3 43.2 83.8 43.6C82.3 44 80.7 44.2 78.9 44.2C76.6 44.2 74.5 44 72.8 43.5C71 43.1 69.7 42.6 68.9 42.2L70.9 36.8C71.2 37 71.7 37.2 72.2 37.4C72.7 37.6 73.4 37.8 74 38C74.7 38.2 75.4 38.3 76.2 38.5C77 38.6 77.7 38.7 78.5 38.7C80.4 38.7 81.8 38.4 82.8 37.7C84 37.2 84.5 36.2 84.5 34.9Z" fill="white"/>
<path d="M93.6 32C93.6 28.1 94.6 25 96.5 22.9C98.4 20.8 101.1 19.7 104.6 19.7C106.5 19.7 108.1 20 109.4 20.6C110.8 21.2 111.9 22 112.8 23.1C113.7 24.2 114.4 25.5 114.8 27C115.2 28.5 115.5 30.2 115.5 32C115.5 35.9 114.5 39 112.6 41.1C110.7 43.2 108 44.3 104.5 44.3C102.6 44.3 101 44 99.7 43.4C98.3 42.8 97.2 42 96.3 40.9C95.4 39.8 94.7 38.5 94.3 37C93.8 35.5 93.6 33.8 93.6 32ZM99.8 32C99.8 33 99.9 34 100.1 34.8C100.3 35.7 100.6 36.4 100.9 37.1C101.3 37.8 101.8 38.3 102.4 38.6C103 39 103.7 39.1 104.6 39.1C106.2 39.1 107.4 38.5 108.1 37.4C108.9 36.3 109.3 34.4 109.3 32C109.3 29.9 108.9 28.1 108.2 26.8C107.5 25.5 106.3 24.8 104.6 24.8C103.1 24.8 101.9 25.4 101.1 26.5C100.2 27.6 99.8 29.5 99.8 32Z" fill="white"/>
<path d="M124.5 20.4V33.6C124.5 35.5 124.7 36.9 125.2 37.7C125.6 38.5 126.5 39 127.8 39C128.9 39 129.9 38.7 130.7 38C131.5 37.3 132 36.5 132.4 35.5V20.5H138.4V36.7C138.4 38 138.5 39.2 138.6 40.4C138.7 41.6 138.9 42.7 139.2 43.7H134.6L133.5 40.3H133.3C132.6 41.5 131.6 42.5 130.3 43.2C129 44 127.5 44.4 125.8 44.4C124.6 44.4 123.6 44.2 122.6 43.9C121.7 43.6 120.9 43.1 120.3 42.4C119.7 41.7 119.2 40.7 118.9 39.5C118.6 38.3 118.4 36.8 118.4 34.9V20.4H124.5Z" fill="white"/>
<path d="M156 26.1C155 25.8 154.2 25.6 153.4 25.6C152.3 25.6 151.4 25.9 150.7 26.5C150 27.1 149.5 27.8 149.2 28.7V43.7H143.2V20.4H147.9L148.6 23.5H148.8C149.3 22.4 150 21.5 150.9 20.8C151.8 20.2 152.9 19.9 154.1 19.9C154.9 19.9 156.6 20.3 157.5 20.7L156 26.1Z" fill="white"/>
<path d="M175.6 42.2C174.7 42.9 173.5 43.4 172.2 43.8C170.9 44.2 169.5 44.3 168.1 44.3C166.2 44.3 164.7 44 163.4 43.4C162.1 42.8 161.1 42 160.3 40.9C159.5 39.8 158.9 38.5 158.6 37C158.2 35.5 158.1 33.8 158.1 32C158.1 28.1 159 25 160.7 22.9C162.5 20.8 165 19.7 168.4 19.7C170.1 19.7 171.5 19.8 172.5 20.1C173.5 20.4 174.5 20.7 175.3 21.2L173.9 26.1C173.2 25.8 172.5 25.5 171.8 25.3C171.1 25.1 170.3 25 169.4 25C167.7 25 166.5 25.6 165.6 26.7C164.7 27.8 164.3 29.6 164.3 32C164.3 33 164.4 33.9 164.6 34.7C164.8 35.5 165.1 36.3 165.6 36.9C166 37.5 166.6 38 167.3 38.4C168 38.8 168.8 38.9 169.7 38.9C170.7 38.9 171.6 38.8 172.3 38.5C173 38.2 173.6 37.9 174.2 37.5L175.6 42.2Z" fill="white"/>
<path d="M196.9 41.6C196 42.3 194.7 43 193.1 43.5C191.5 44 189.8 44.3 188 44.3C184.2 44.3 181.5 43.2 179.8 41C178.1 38.8 177.2 35.8 177.2 32C177.2 27.9 178.2 24.8 180.1 22.8C182.1 20.8 184.8 19.7 188.3 19.7C189.5 19.7 190.6 19.9 191.7 20.2C192.8 20.5 193.8 21 194.7 21.7C195.6 22.4 196.3 23.4 196.8 24.6C197.3 25.8 197.6 27.3 197.6 29.1C197.6 29.8 197.6 30.4 197.5 31.2C197.4 31.9 197.3 32.7 197.2 33.5H183.2C183.3 35.5 183.8 36.9 184.7 37.9C185.6 38.9 187.1 39.4 189.1 39.4C190.4 39.4 191.5 39.2 192.5 38.8C193.5 38.4 194.3 38 194.8 37.6L196.9 41.6ZM188.3 24.6C186.7 24.6 185.5 25.1 184.8 26C184 26.9 183.6 28.2 183.4 29.8H192.1C192.2 28.1 192 26.8 191.3 25.9C190.6 25 189.6 24.6 188.3 24.6Z" fill="white"/>
<path d="M221.1 43.6C221.1 47 220.2 49.5 218.4 51.1C216.6 52.7 214 53.5 210.7 53.5C208.5 53.5 206.7 53.3 205.4 53C204.1 52.7 203.1 52.4 202.5 52L203.8 47.2C204.5 47.5 205.3 47.8 206.3 48C207.2 48.3 208.4 48.4 209.8 48.4C211.9 48.4 213.3 47.9 214.1 47C214.9 46.1 215.2 44.8 215.2 43.2V41.7H215C213.9 43.2 212 43.9 209.2 43.9C206.2 43.9 203.9 43 202.5 41.1C201 39.2 200.3 36.3 200.3 32.4C200.3 28.2 201.3 25.1 203.3 23C205.3 20.9 208.2 19.8 212 19.8C214 19.8 215.8 19.9 217.3 20.2C218.9 20.5 220.1 20.8 221.1 21.2V43.6V43.6ZM210.9 39.2C212.1 39.2 213 38.9 213.6 38.4C214.2 37.9 214.7 37.1 215.1 36V25.6C214.1 25.2 212.9 25 211.5 25C209.9 25 208.7 25.6 207.9 26.7C207 27.9 206.6 29.7 206.6 32.3C206.6 34.6 207 36.3 207.7 37.5C208.4 38.6 209.5 39.2 210.9 39.2Z" fill="white"/>
<path d="M238.6 26.1C237.6 25.8 236.8 25.6 236 25.6C234.9 25.6 234 25.9 233.3 26.5C232.6 27.1 232.1 27.8 231.8 28.7V43.7H225.8V20.4H230.5L231.2 23.5H231.4C231.9 22.4 232.6 21.5 233.5 20.8C234.4 20.2 235.5 19.9 236.7 19.9C237.5 19.9 238.4 20.1 239.4 20.4L238.6 26.1Z" fill="white"/>
<path d="M241.6 21.5C242.8 20.9 243.7 20.7 245.4 20.4C247.1 20.1 248.9 19.9 250.7 19.9C252.3 19.9 253.7 20.1 254.7 20.5C255.8 20.9 256.6 21.4 257.3 22.2C257.9 22.9 258.4 23.8 258.6 24.8C258.9 25.8 259 26.9 259 28.2C259 29.6 259 30.9 258.9 32.3C258.8 33.7 258.8 35 258.7 36.4C258.7 37.7 258.7 39 258.8 40.3C258.9 41.6 259.1 42.7 259.5 43.9H254.6L253.6 40.7H253.4C252.8 41.7 251.9 42.5 250.8 43.2C249.7 43.9 248.3 44.2 246.5 44.2C245.4 44.2 244.4 44 243.6 43.7C242.7 43.4 242 42.9 241.4 42.3C240.8 41.7 240.3 41 240 40.2C239.7 39.4 239.5 38.5 239.5 37.4C239.5 36 239.8 34.8 240.5 33.8C241.1 32.8 242.1 32 243.2 31.4C244.4 30.8 245.8 30.4 247.5 30.1C249.2 29.9 251 29.8 253.1 29.9C253.3 28.2 253.2 26.9 252.7 26.2C252.2 25.4 251.2 25.1 249.6 25.1C248.4 25.1 247.1 25.2 245.8 25.5C244.5 25.7 243.9 25.9 243.1 26.3L241.6 21.5ZM248.7 39C249.9 39 250.9 38.7 251.6 38.2C252.3 37.7 252.8 37.1 253.2 36.5V33.5C252.2 33.4 251.3 33.4 250.4 33.5C249.5 33.6 248.7 33.7 248.1 33.9C247.4 34.1 246.9 34.4 246.5 34.8C246.1 35.2 245.9 35.7 245.9 36.3C245.9 37.2 246.2 37.8 246.7 38.3C247.1 38.8 247.8 39 248.7 39Z" fill="white"/>
<path d="M263.6 20.4H268L268.7 23.2H268.9C269.7 22 270.7 21.2 271.8 20.6C272.9 20 274.2 19.8 275.8 19.8C278.7 19.8 280.9 20.7 282.4 22.6C283.9 24.4 284.6 27.4 284.6 31.5C284.6 33.5 284.4 35.3 283.9 36.9C283.4 38.5 282.7 39.9 281.8 41C280.9 42.1 279.8 43 278.5 43.6C277.2 44.2 275.7 44.5 274 44.5C273 44.5 272.2 44.4 271.6 44.3C271 44.2 270.4 43.9 269.7 43.6V53.1H263.7V20.4H263.6ZM274 24.9C272.8 24.9 271.9 25.2 271.2 25.8C270.5 26.4 270 27.3 269.6 28.4V38.1C270 38.4 270.5 38.7 271 38.9C271.5 39.1 272.2 39.2 273 39.2C274.7 39.2 276 38.6 276.9 37.4C277.8 36.2 278.2 34.2 278.2 31.3C278.2 29.3 277.9 27.7 277.2 26.6C276.6 25.4 275.5 24.9 274 24.9Z" fill="white"/>
<path d="M302.2 43.6V30.4C302.2 28.5 301.9 27.1 301.4 26.3C300.9 25.5 299.9 25 298.5 25C297.5 25 296.5 25.3 295.7 26C294.8 26.7 294.3 27.6 294 28.7V43.5H288V11.1H294V23H294.2C294.9 22 295.9 21.2 296.9 20.6C298 20 299.4 19.7 301 19.7C302.2 19.7 303.2 19.9 304.1 20.2C305 20.5 305.8 21 306.4 21.7C307 22.4 307.5 23.4 307.7 24.6C308 25.8 308.1 27.3 308.1 29.1V43.6H302.2Z" fill="white"/>
<path d="M324.9 11.8H327.1V42H342V43.9H324.9V11.8ZM354.2 19.9C359.8 19.9 363.2 23.9 363.2 30.7C363.2 31.3 363.2 31.9 363.1 32.5H346.3C346.4 38.4 349.8 42.6 355.1 42.6C357.6 42.6 359.6 41.8 361.4 40.5L362.3 42.1C360.5 43.3 358.3 44.4 354.9 44.4C348.9 44.4 344.1 39.8 344.1 32.1C344 24.6 348.9 19.9 354.2 19.9ZM361.1 30.8C361.1 24.8 358.4 21.8 354.2 21.8C350.2 21.8 346.7 25.2 346.2 30.8H361.1ZM366.6 38.1C366.6 32.9 371.3 30.4 381.7 29.3C381.8 25.7 380.8 21.8 376.2 21.8C373 21.8 370.3 23.4 368.7 24.6L367.7 23C369.4 21.8 372.6 20 376.4 20C382 20 383.8 24 383.8 29V44H382L381.8 41H381.7C379.3 42.9 376.5 44.6 373.4 44.6C369.7 44.5 366.6 42.5 366.6 38.1ZM381.7 38.9V30.9C372.1 32 368.8 34.2 368.8 38C368.8 41.4 371.1 42.7 373.8 42.7C376.5 42.7 378.8 41.4 381.7 38.9ZM391.1 20.5H392.9L393.1 24.9H393.2C394.8 22 397.1 19.9 399.9 19.9C400.8 19.9 401.5 20 402.2 20.4L401.7 22.4C400.9 22.1 400.5 22 399.6 22C397.5 22 395 23.6 393.2 28V43.9H391V20.5H391.1ZM406.4 20.5H408.2L408.4 24.1H408.5C410.9 21.7 413.3 19.9 416.6 19.9C421.4 19.9 423.7 22.8 423.7 28.9V43.9H421.5V29.2C421.5 24.2 419.9 21.9 416.2 21.9C413.4 21.9 411.4 23.4 408.5 26.3V44H406.3V20.5H406.4Z" fill="white"/>
</svg>
