<svg width="313" height="53" viewBox="0 0 313 53" fill="none" xmlns="http://www.w3.org/2000/svg">
<g clip-path="url(#clip0_2:19)">
<path d="M15.6 6.8L27.3 48.7C28.1 51.5 31.1 53.2 33.9 52.4C36.8 51.6 38.5 48.7 37.7 45.9L26 4C25.2 1.2 22.2 -0.500004 19.4 0.299996C16.5 1.1 14.8 4 15.6 6.8Z" fill="#F96216"/>
<path d="M37.3 6.50001L7.9 38.9C5.9 41.1 6.1 44.4 8.4 46.4C10.6 48.3 14 48.1 16 45.9L45.3 13.5C47.3 11.3 47.1 8.00001 44.8 6.00001C42.7 4.10001 39.2 4.30001 37.3 6.50001Z" fill="#B200F8"/>
<path d="M4 24.6L45.8 38.1C48.6 39 51.7 37.5 52.6 34.7C53.5 31.9 52 28.9 49.2 28L7.4 14.5C4.6 13.6 1.5 15.1 0.599999 17.9C-0.300001 20.7 1.2 23.7 4 24.6Z" fill="#00B4F2"/>
<path d="M82.5 32.5C82.5 31.5 82.1 30.7 81.4 30.1C80.7 29.5 79.8 29 78.7 28.5C77.6 28 76.5 27.5 75.2 27C74 26.5 72.8 25.8 71.7 25.1C70.6 24.3 69.8 23.3 69 22.2C68.3 21.1 68 19.6 68 17.8C68 16.3 68.3 14.9 68.8 13.8C69.3 12.7 70 11.7 71 10.9C72 10.1 73.1 9.6 74.4 9.2C75.7 8.8 77.1 8.7 78.7 8.7C80.5 8.7 82.3 8.9 83.9 9.2C85.5 9.5 86.9 10 87.9 10.6L86 15.8C85.3 15.4 84.3 15 83 14.7C81.7 14.3 80.2 14.2 78.7 14.2C77.3 14.2 76.1 14.5 75.3 15.1C74.5 15.7 74.2 16.4 74.2 17.4C74.2 18.3 74.5 19.1 75.2 19.7C75.9 20.3 76.8 20.9 77.9 21.4C79 21.9 80.2 22.4 81.4 23C82.7 23.5 83.8 24.2 84.9 25C86 25.8 86.9 26.7 87.6 27.9C88.3 29 88.7 30.4 88.7 32.1C88.7 33.8 88.4 35.3 87.8 36.5C87.3 37.7 86.5 38.7 85.4 39.5C84.4 40.3 83.2 40.9 81.7 41.3C80.3 41.7 78.7 41.9 77 41.9C74.7 41.9 72.7 41.7 71 41.3C69.3 40.9 68 40.5 67.2 40L69.2 34.7C69.5 34.9 70 35.1 70.5 35.3C71 35.5 71.6 35.7 72.3 35.9C73 36.1 73.7 36.2 74.4 36.4C75.2 36.5 75.9 36.6 76.7 36.6C78.5 36.6 79.9 36.3 80.9 35.7C82 34.8 82.5 33.8 82.5 32.5Z" fill="white"/>
<path d="M112.8 24.8C112.4 23.3 111.7 22.1 110.9 21C110 19.9 108.9 19.1 107.6 18.6C106.3 18 104.7 17.7 102.9 17.7C99.5 17.7 96.9 18.7 95 20.8C93.1 22.9 92.2 25.8 92.2 29.6C92.2 31.4 92.4 33 92.8 34.5C93.3 36 93.9 37.2 94.8 38.3C95.7 39.3 96.8 40.1 98.2 40.7C99.5 41.3 101.1 41.6 102.9 41.6C106.3 41.6 108.9 40.6 110.7 38.5C112.6 36.4 113.5 33.5 113.5 29.6C113.5 27.9 113.3 26.3 112.8 24.8ZM106.3 35C105.5 36.1 104.4 36.7 102.9 36.7C102.1 36.7 101.4 36.5 100.8 36.2C100.2 35.8 99.8 35.3 99.4 34.7C99 34.1 98.8 33.3 98.6 32.5C98.4 31.7 98.3 30.7 98.3 29.7C98.3 27.2 98.7 25.4 99.5 24.4C100.3 23.4 101.4 22.8 102.9 22.8C104.6 22.8 105.7 23.4 106.4 24.7C107.1 26 107.4 27.6 107.4 29.7C107.4 32.1 107.1 33.9 106.3 35Z" fill="white"/>
<path d="M123.9 18.4V31.3C123.9 33.1 124.1 34.5 124.5 35.3C125 36.1 125.8 36.5 127.1 36.5C128.2 36.5 129.1 36.2 129.9 35.5C130.7 34.8 131.2 34 131.6 33.1V18.4H137.5V34.2C137.5 35.4 137.6 36.7 137.7 37.9C137.8 39.1 138 40.2 138.2 41.1H133.8L132.8 37.7H132.6C131.9 38.8 130.9 39.8 129.7 40.6C128.5 41.4 127 41.7 125.3 41.7C124.2 41.7 123.1 41.5 122.2 41.2C121.3 40.9 120.5 40.4 119.9 39.7C119.3 39 118.8 38.1 118.5 36.9C118.2 35.7 118 34.2 118 32.5V18.4H123.9Z" fill="white"/>
<path d="M156.3 23.9C155.4 23.6 154.5 23.4 153.8 23.4C152.7 23.4 151.9 23.7 151.1 24.3C150.4 24.8 149.9 25.6 149.7 26.4V41H143.8V18.4H148.4L149.1 21.4H149.3C149.8 20.3 150.5 19.4 151.4 18.8C152.3 18.2 153.3 17.9 154.5 17.9C155.3 17.9 156.2 18.1 157.2 18.4L156.3 23.9Z" fill="white"/>
<path d="M176.3 39.6C175.4 40.3 174.3 40.8 173 41.1C171.7 41.5 170.4 41.6 169.1 41.6C167.3 41.6 165.7 41.3 164.5 40.7C163.3 40.1 162.2 39.3 161.5 38.3C160.7 37.2 160.1 36 159.8 34.5C159.5 33 159.3 31.4 159.3 29.6C159.3 25.8 160.2 22.8 161.9 20.8C163.6 18.7 166.1 17.7 169.4 17.7C171.1 17.7 172.4 17.8 173.4 18.1C174.4 18.4 175.3 18.7 176.2 19.1L174.8 23.9C174.1 23.6 173.4 23.3 172.7 23.1C172 22.9 171.3 22.8 170.4 22.8C168.8 22.8 167.5 23.3 166.7 24.4C165.9 25.5 165.4 27.2 165.4 29.5C165.4 30.5 165.5 31.4 165.7 32.2C165.9 33 166.2 33.7 166.7 34.3C167.1 34.9 167.7 35.4 168.3 35.7C169 36 169.8 36.2 170.7 36.2C171.7 36.2 172.5 36.1 173.2 35.8C173.9 35.5 174.5 35.2 175.1 34.8L176.3 39.6Z" fill="white"/>
<path d="M197.8 22.5C197.3 21.3 196.6 20.4 195.8 19.7C195 19 194 18.5 192.9 18.2C191.8 17.9 190.7 17.7 189.5 17.7C186.1 17.7 183.4 18.7 181.5 20.7C179.6 22.7 178.6 25.7 178.6 29.7C178.6 33.4 179.4 36.3 181.1 38.5C182.8 40.6 185.5 41.7 189.1 41.7C190.9 41.7 192.5 41.5 194 41C195.6 40.5 196.8 39.9 197.7 39.1L195.8 35.2C195.3 35.6 194.5 36 193.5 36.4C192.5 36.8 191.4 36.9 190.2 36.9C188.2 36.9 186.8 36.4 185.9 35.5C185 34.5 184.5 33.1 184.5 31.2H198.1C198.3 30.4 198.4 29.7 198.4 28.9C198.5 28.2 198.5 27.5 198.5 26.9C198.6 25.2 198.3 23.7 197.8 22.5ZM193.1 27.6H184.7C184.9 26.1 185.3 24.8 186 23.9C186.8 23 187.9 22.5 189.4 22.5C190.7 22.5 191.7 22.9 192.3 23.8C193 24.7 193.2 25.9 193.1 27.6Z" fill="white"/>
<path d="M219.1 18.3C217.6 18 215.9 17.9 213.9 17.9C210.2 17.9 207.4 18.9 205.5 21C203.6 23.1 202.6 26.1 202.6 30.2C202.6 34.1 203.3 36.9 204.7 38.7C206.1 40.5 208.3 41.4 211.3 41.4C214 41.4 215.9 40.7 216.9 39.3H217.1V40.7C217.1 42.3 216.7 43.5 216 44.4C215.3 45.3 213.9 45.8 211.8 45.8C210.4 45.8 209.3 45.7 208.4 45.4C207.5 45.1 206.7 44.9 206 44.6L204.8 49.3C205.4 49.6 206.4 49.9 207.6 50.3C208.9 50.6 210.6 50.8 212.8 50.8C216 50.8 218.5 50 220.3 48.4C222.1 46.9 223 44.4 223 41.2V19.2C221.9 18.9 220.7 18.5 219.1 18.3ZM217 33.6C216.7 34.6 216.2 35.4 215.6 35.9C215 36.4 214.1 36.7 213 36.7C211.6 36.7 210.6 36.1 209.9 35C209.2 33.9 208.8 32.2 208.8 30C208.8 27.5 209.2 25.7 210.1 24.6C210.9 23.5 212.1 22.9 213.6 22.9C215 22.9 216.2 23.1 217.1 23.5V33.6H217Z" fill="white"/>
<path d="M240.5 23.9C239.6 23.6 238.7 23.4 238 23.4C236.9 23.4 236.1 23.7 235.3 24.3C234.6 24.8 234.1 25.6 233.9 26.4V41H228V18.4H232.6L233.3 21.4H233.5C234 20.3 234.7 19.4 235.6 18.8C236.5 18.2 237.5 17.9 238.7 17.9C239.5 17.9 240.4 18.1 241.4 18.4L240.5 23.9Z" fill="white"/>
<path d="M262.5 37.7C262.4 36.5 262.4 35.2 262.4 33.9C262.4 32.6 262.5 31.3 262.6 30C262.7 28.6 262.7 27.3 262.7 26C262.7 24.8 262.6 23.7 262.3 22.7C262.1 21.7 261.6 20.9 261 20.2C260.4 19.5 259.6 19 258.5 18.6C257.4 18.2 256.1 18 254.6 18C252.8 18 251.1 18.2 249.4 18.5C247.7 18.8 246.3 19.2 245.1 19.8L246.5 24.2C247.3 23.8 248.4 23.5 249.7 23.2C251 23 252.3 22.8 253.5 22.8C255.1 22.8 256.1 23.2 256.5 23.9C257 24.6 257.1 25.8 256.9 27.5C254.9 27.4 253.1 27.5 251.5 27.7C249.9 27.9 248.5 28.3 247.3 28.9C246.2 29.5 245.3 30.2 244.6 31.2C244 32.1 243.7 33.3 243.7 34.7C243.7 35.7 243.9 36.6 244.2 37.4C244.5 38.2 245 38.9 245.6 39.5C246.2 40.1 246.9 40.5 247.8 40.9C248.6 41.2 249.6 41.4 250.7 41.4C252.4 41.4 253.8 41.1 254.8 40.4C255.9 39.7 256.7 38.9 257.3 38H257.5L258.5 41.1H263.3C262.8 40 262.6 38.9 262.5 37.7ZM256.2 34.1C255.9 34.7 255.4 35.3 254.7 35.8C254 36.3 253.1 36.6 251.9 36.6C251 36.6 250.3 36.4 249.8 35.9C249.3 35.4 249.1 34.8 249.1 33.9C249.1 33.3 249.3 32.8 249.7 32.4C250.1 32 250.6 31.7 251.3 31.5C252 31.3 252.7 31.2 253.6 31.1C254.5 31 255.4 31.1 256.3 31.1V34.1H256.2Z" fill="white"/>
<path d="M285.8 20.5C284.4 18.7 282.3 17.8 279.4 17.8C277.9 17.8 276.5 18.1 275.5 18.6C274.4 19.1 273.5 20 272.7 21.1H272.5L271.8 18.4H267.5V50.1H273.4V40.8C274 41.1 274.6 41.3 275.2 41.4C275.8 41.6 276.6 41.6 277.5 41.6C279.2 41.6 280.6 41.3 281.9 40.7C283.2 40.1 284.3 39.3 285.2 38.2C286.1 37.1 286.8 35.8 287.2 34.3C287.7 32.7 287.9 31 287.9 29C288 25.1 287.3 22.3 285.8 20.5ZM280.6 34.9C279.8 36.1 278.5 36.7 276.8 36.7C276 36.7 275.3 36.6 274.8 36.4C274.3 36.2 273.9 35.9 273.4 35.6V26.2C273.8 25.1 274.3 24.2 274.9 23.6C275.6 23 276.5 22.7 277.6 22.7C279.1 22.7 280.2 23.2 280.8 24.3C281.4 25.4 281.8 26.9 281.8 28.9C281.9 31.7 281.5 33.7 280.6 34.9Z" fill="white"/>
<path d="M306.5 41.1V28.2C306.5 26.4 306.2 25 305.7 24.2C305.2 23.4 304.3 23 302.9 23C301.9 23 301 23.3 300.1 24C299.3 24.7 298.7 25.5 298.5 26.6V41.1H292.6V9.3H298.5V20.9H298.7C299.4 19.9 300.3 19.2 301.4 18.6C302.5 18 303.8 17.7 305.4 17.7C306.5 17.7 307.6 17.9 308.4 18.2C309.2 18.5 310 19 310.6 19.7C311.2 20.4 311.6 21.3 311.9 22.6C312.2 23.8 312.4 25.2 312.4 27V41.1H306.5Z" fill="white"/>
</g>
<defs>
<clipPath id="clip0_2:19">
<rect width="312.8" height="52.8" fill="white"/>
</clipPath>
</defs>
</svg>
