<?xml version="1.0" encoding="utf-8"?>
<!-- Generator: Adobe Illustrator 24.0.0, SVG Export Plug-In . SVG Version: 6.00 Build 0)  -->
<svg version="1.1" id="Layer_1" xmlns="http://www.w3.org/2000/svg" xmlns:xlink="http://www.w3.org/1999/xlink" x="0px" y="0px"
	 viewBox="0 0 428.3 55.5" style="enable-background:new 0 0 428.3 55.5;" xml:space="preserve">
<style type="text/css">
	.st0{fill:#FF5543;}
	.st1{fill:#A112FF;}
	.st2{fill:#00CBEC;}
	.st3{fill:#242427;}
</style>
<g>
	<path class="st0" d="M35.2,53.6c-2.8,0.5-5.5-1.3-6-4.1L21.6,8c-0.5-2.8,1.3-5.5,4.1-6c2.8-0.5,5.5,1.3,6,4.1l7.6,41.5
		C39.9,50.4,38,53.1,35.2,53.6"/>
	<path class="st1" d="M15.3,46.6c-1.7,0.3-3.6-0.3-4.8-1.7c-1.8-2.2-1.6-5.4,0.6-7.2l32.1-27.4c2.2-1.8,5.4-1.6,7.2,0.6
		c1.8,2.2,1.6,5.4-0.6,7.2L17.7,45.4C17,46,16.2,46.4,15.3,46.6"/>
	<path class="st2" d="M51.3,40c-0.9,0.2-1.8,0.1-2.6-0.2L8.9,25.6c-2.7-1-4.1-3.9-3.1-6.6c1-2.7,3.9-4.1,6.6-3.1l39.8,14.1
		c2.7,0.9,4.1,3.9,3.1,6.6C54.6,38.4,53,39.6,51.3,40"/>
	<path d="M84.5,34.9c0-1-0.4-1.8-1.1-2.4c-0.7-0.6-1.6-1.2-2.7-1.7c-1.1-0.5-2.3-1-3.6-1.6c-1.3-0.5-2.5-1.2-3.6-2
		c-1.1-0.8-2-1.8-2.7-3c-0.7-1.2-1.1-2.7-1.1-4.5c0-1.6,0.3-3,0.8-4.1c0.5-1.2,1.3-2.1,2.3-2.9c1-0.8,2.1-1.3,3.5-1.7
		c1.3-0.4,2.8-0.6,4.5-0.6c1.9,0,3.7,0.2,5.3,0.5c1.7,0.3,3.1,0.8,4.1,1.4l-2,5.4c-0.7-0.4-1.7-0.8-3.1-1.2
		c-1.4-0.4-2.8-0.5-4.4-0.5c-1.5,0-2.6,0.3-3.4,0.9c-0.8,0.6-1.2,1.4-1.2,2.4c0,0.9,0.4,1.7,1.1,2.3c0.7,0.6,1.6,1.2,2.7,1.7
		c1.1,0.5,2.3,1.1,3.6,1.6c1.3,0.6,2.5,1.2,3.6,2c1.1,0.8,2,1.8,2.7,2.9c0.7,1.2,1.1,2.6,1.1,4.3c0,1.7-0.3,3.2-0.9,4.5
		c-0.6,1.3-1.4,2.3-2.4,3.1c-1,0.8-2.3,1.5-3.8,1.9c-1.5,0.4-3.1,0.6-4.9,0.6c-2.3,0-4.4-0.2-6.1-0.7c-1.8-0.4-3.1-0.9-3.9-1.3
		l2-5.4c0.3,0.2,0.8,0.4,1.3,0.6c0.5,0.2,1.2,0.4,1.8,0.6c0.7,0.2,1.4,0.3,2.2,0.5c0.8,0.1,1.5,0.2,2.3,0.2c1.9,0,3.3-0.3,4.3-1
		C84,37.2,84.5,36.2,84.5,34.9"/>
	<path d="M93.6,32c0-3.9,1-7,2.9-9.1c1.9-2.1,4.6-3.2,8.1-3.2c1.9,0,3.5,0.3,4.8,0.9c1.4,0.6,2.5,1.4,3.4,2.5c0.9,1.1,1.6,2.4,2,3.9
		c0.4,1.5,0.7,3.2,0.7,5c0,3.9-1,7-2.9,9.1c-1.9,2.1-4.6,3.2-8.1,3.2c-1.9,0-3.5-0.3-4.8-0.9c-1.4-0.6-2.5-1.4-3.4-2.5
		c-0.9-1.1-1.6-2.4-2-3.9C93.8,35.5,93.6,33.8,93.6,32 M99.8,32c0,1,0.1,2,0.3,2.8c0.2,0.9,0.5,1.6,0.8,2.3c0.4,0.7,0.9,1.2,1.5,1.5
		c0.6,0.4,1.3,0.5,2.2,0.5c1.6,0,2.8-0.6,3.5-1.7c0.8-1.1,1.2-3,1.2-5.4c0-2.1-0.4-3.9-1.1-5.2c-0.7-1.3-1.9-2-3.6-2
		c-1.5,0-2.7,0.6-3.5,1.7C100.2,27.6,99.8,29.5,99.8,32"/>
	<path d="M124.5,20.4v13.2c0,1.9,0.2,3.3,0.7,4.1c0.4,0.8,1.3,1.3,2.6,1.3c1.1,0,2.1-0.3,2.9-1c0.8-0.7,1.3-1.5,1.7-2.5v-15h6v16.2
		c0,1.3,0.1,2.5,0.2,3.7c0.1,1.2,0.3,2.3,0.6,3.3h-4.6l-1.1-3.4h-0.2c-0.7,1.2-1.7,2.2-3,2.9c-1.3,0.8-2.8,1.2-4.5,1.2
		c-1.2,0-2.2-0.2-3.2-0.5c-0.9-0.3-1.7-0.8-2.3-1.5c-0.6-0.7-1.1-1.7-1.4-2.9c-0.3-1.2-0.5-2.7-0.5-4.6V20.4H124.5z"/>
	<path d="M156,26.1c-1-0.3-1.8-0.5-2.6-0.5c-1.1,0-2,0.3-2.7,0.9c-0.7,0.6-1.2,1.3-1.5,2.2v15h-6V20.4h4.7l0.7,3.1h0.2
		c0.5-1.1,1.2-2,2.1-2.7c0.9-0.6,2-0.9,3.2-0.9c0.8,0,2.5,0.4,3.4,0.8L156,26.1z"/>
	<path d="M175.6,42.2c-0.9,0.7-2.1,1.2-3.4,1.6c-1.3,0.4-2.7,0.5-4.1,0.5c-1.9,0-3.4-0.3-4.7-0.9c-1.3-0.6-2.3-1.4-3.1-2.5
		c-0.8-1.1-1.4-2.4-1.7-3.9c-0.4-1.5-0.5-3.2-0.5-5c0-3.9,0.9-7,2.6-9.1c1.8-2.1,4.3-3.2,7.7-3.2c1.7,0,3.1,0.1,4.1,0.4
		c1,0.3,2,0.6,2.8,1.1l-1.4,4.9c-0.7-0.3-1.4-0.6-2.1-0.8c-0.7-0.2-1.5-0.3-2.4-0.3c-1.7,0-2.9,0.6-3.8,1.7
		c-0.9,1.1-1.3,2.9-1.3,5.3c0,1,0.1,1.9,0.3,2.7c0.2,0.8,0.5,1.6,1,2.2c0.4,0.6,1,1.1,1.7,1.5c0.7,0.4,1.5,0.5,2.4,0.5
		c1,0,1.9-0.1,2.6-0.4c0.7-0.3,1.3-0.6,1.9-1L175.6,42.2z"/>
	<path d="M196.9,41.6c-0.9,0.7-2.2,1.4-3.8,1.9c-1.6,0.5-3.3,0.8-5.1,0.8c-3.8,0-6.5-1.1-8.2-3.3c-1.7-2.2-2.6-5.2-2.6-9
		c0-4.1,1-7.2,2.9-9.2c2-2,4.7-3.1,8.2-3.1c1.2,0,2.3,0.2,3.4,0.5c1.1,0.3,2.1,0.8,3,1.5c0.9,0.7,1.6,1.7,2.1,2.9
		c0.5,1.2,0.8,2.7,0.8,4.5c0,0.7,0,1.3-0.1,2.1c-0.1,0.7-0.2,1.5-0.3,2.3h-14c0.1,2,0.6,3.4,1.5,4.4c0.9,1,2.4,1.5,4.4,1.5
		c1.3,0,2.4-0.2,3.4-0.6c1-0.4,1.8-0.8,2.3-1.2L196.9,41.6z M188.3,24.6c-1.6,0-2.8,0.5-3.5,1.4c-0.8,0.9-1.2,2.2-1.4,3.8h8.7
		c0.1-1.7-0.1-3-0.8-3.9C190.6,25,189.6,24.6,188.3,24.6"/>
	<path d="M221.1,43.6c0,3.4-0.9,5.9-2.7,7.5c-1.8,1.6-4.4,2.4-7.7,2.4c-2.2,0-4-0.2-5.3-0.5c-1.3-0.3-2.3-0.6-2.9-1l1.3-4.8
		c0.7,0.3,1.5,0.6,2.5,0.8c0.9,0.3,2.1,0.4,3.5,0.4c2.1,0,3.5-0.5,4.3-1.4c0.8-0.9,1.1-2.2,1.1-3.8v-1.5H215c-1.1,1.5-3,2.2-5.8,2.2
		c-3,0-5.3-0.9-6.7-2.8c-1.5-1.9-2.2-4.8-2.2-8.7c0-4.2,1-7.3,3-9.4c2-2.1,4.9-3.2,8.7-3.2c2,0,3.8,0.1,5.3,0.4
		c1.6,0.3,2.8,0.6,3.8,1V43.6z M210.9,39.2c1.2,0,2.1-0.3,2.7-0.8c0.6-0.5,1.1-1.3,1.5-2.4V25.6c-1-0.4-2.2-0.6-3.6-0.6
		c-1.6,0-2.8,0.6-3.6,1.7c-0.9,1.2-1.3,3-1.3,5.6c0,2.3,0.4,4,1.1,5.2C208.4,38.6,209.5,39.2,210.9,39.2"/>
	<path d="M238.6,26.1c-1-0.3-1.8-0.5-2.6-0.5c-1.1,0-2,0.3-2.7,0.9c-0.7,0.6-1.2,1.3-1.5,2.2v15h-6V20.4h4.7l0.7,3.1h0.2
		c0.5-1.1,1.2-2,2.1-2.7c0.9-0.6,2-0.9,3.2-0.9c0.8,0,1.7,0.2,2.7,0.5L238.6,26.1z"/>
	<path d="M241.6,21.5c1.2-0.6,2.1-0.8,3.8-1.1c1.7-0.3,3.5-0.5,5.3-0.5c1.6,0,3,0.2,4,0.6c1.1,0.4,1.9,0.9,2.6,1.7
		c0.6,0.7,1.1,1.6,1.3,2.6c0.3,1,0.4,2.1,0.4,3.4c0,1.4,0,2.7-0.1,4.1c-0.1,1.4-0.1,2.7-0.2,4.1c0,1.3,0,2.6,0.1,3.9
		c0.1,1.3,0.3,2.4,0.7,3.6h-4.9l-1-3.2h-0.2c-0.6,1-1.5,1.8-2.6,2.5c-1.1,0.7-2.5,1-4.3,1c-1.1,0-2.1-0.2-2.9-0.5
		c-0.9-0.3-1.6-0.8-2.2-1.4c-0.6-0.6-1.1-1.3-1.4-2.1c-0.3-0.8-0.5-1.7-0.5-2.8c0-1.4,0.3-2.6,1-3.6c0.6-1,1.6-1.8,2.7-2.4
		c1.2-0.6,2.6-1,4.3-1.3c1.7-0.2,3.5-0.3,5.6-0.2c0.2-1.7,0.1-3-0.4-3.7c-0.5-0.8-1.5-1.1-3.1-1.1c-1.2,0-2.5,0.1-3.8,0.4
		c-1.3,0.2-1.9,0.4-2.7,0.8L241.6,21.5z M248.7,39c1.2,0,2.2-0.3,2.9-0.8c0.7-0.5,1.2-1.1,1.6-1.7v-3c-1-0.1-1.9-0.1-2.8,0
		c-0.9,0.1-1.7,0.2-2.3,0.4c-0.7,0.2-1.2,0.5-1.6,0.9c-0.4,0.4-0.6,0.9-0.6,1.5c0,0.9,0.3,1.5,0.8,2C247.1,38.8,247.8,39,248.7,39"
		/>
	<path d="M263.6,20.4h4.4l0.7,2.8h0.2c0.8-1.2,1.8-2,2.9-2.6c1.1-0.6,2.4-0.8,4-0.8c2.9,0,5.1,0.9,6.6,2.8c1.5,1.8,2.2,4.8,2.2,8.9
		c0,2-0.2,3.8-0.7,5.4c-0.5,1.6-1.2,3-2.1,4.1c-0.9,1.1-2,2-3.3,2.6c-1.3,0.6-2.8,0.9-4.5,0.9c-1,0-1.8-0.1-2.4-0.2
		c-0.6-0.1-1.2-0.4-1.9-0.7v9.5h-6V20.4z M274,24.9c-1.2,0-2.1,0.3-2.8,0.9c-0.7,0.6-1.2,1.5-1.6,2.6v9.7c0.4,0.3,0.9,0.6,1.4,0.8
		c0.5,0.2,1.2,0.3,2,0.3c1.7,0,3-0.6,3.9-1.8c0.9-1.2,1.3-3.2,1.3-6.1c0-2-0.3-3.6-1-4.7C276.6,25.4,275.5,24.9,274,24.9"/>
	<path d="M302.2,43.6V30.4c0-1.9-0.3-3.3-0.8-4.1c-0.5-0.8-1.5-1.3-2.9-1.3c-1,0-2,0.3-2.8,1c-0.9,0.7-1.4,1.6-1.7,2.7v14.8h-6V11.1
		h6V23h0.2c0.7-1,1.7-1.8,2.7-2.4c1.1-0.6,2.5-0.9,4.1-0.9c1.2,0,2.2,0.2,3.1,0.5c0.9,0.3,1.7,0.8,2.3,1.5c0.6,0.7,1.1,1.7,1.3,2.9
		c0.3,1.2,0.4,2.7,0.4,4.5v14.5H302.2z"/>
	<path class="st3" d="M324.9,11.8h2.2V42H342v1.9h-17.1V11.8z M354.2,19.9c5.6,0,9,4,9,10.8c0,0.6,0,1.2-0.1,1.8h-16.8
		c0.1,5.9,3.5,10.1,8.8,10.1c2.5,0,4.5-0.8,6.3-2.1l0.9,1.6c-1.8,1.2-4,2.3-7.4,2.3c-6,0-10.8-4.6-10.8-12.3
		C344,24.6,348.9,19.9,354.2,19.9z M361.1,30.8c0-6-2.7-9-6.9-9c-4,0-7.5,3.4-8,9H361.1z M366.6,38.1c0-5.2,4.7-7.7,15.1-8.8
		c0.1-3.6-0.9-7.5-5.5-7.5c-3.2,0-5.9,1.6-7.5,2.8l-1-1.6c1.7-1.2,4.9-3,8.7-3c5.6,0,7.4,4,7.4,9v15H382l-0.2-3h-0.1
		c-2.4,1.9-5.2,3.6-8.3,3.6C369.7,44.5,366.6,42.5,366.6,38.1z M381.7,38.9v-8c-9.6,1.1-12.9,3.3-12.9,7.1c0,3.4,2.3,4.7,5,4.7
		C376.5,42.7,378.8,41.4,381.7,38.9z M391.1,20.5h1.8l0.2,4.4h0.1c1.6-2.9,3.9-5,6.7-5c0.9,0,1.6,0.1,2.3,0.5l-0.5,2
		c-0.8-0.3-1.2-0.4-2.1-0.4c-2.1,0-4.6,1.6-6.4,6v15.9h-2.2V20.5z M406.4,20.5h1.8l0.2,3.6h0.1c2.4-2.4,4.8-4.2,8.1-4.2
		c4.8,0,7.1,2.9,7.1,9v15h-2.2V29.2c0-5-1.6-7.3-5.3-7.3c-2.8,0-4.8,1.5-7.7,4.4v17.7h-2.2V20.5z"/>
</g>
</svg>
