<?xml version="1.0" encoding="iso-8859-1"?>
<!-- Generator: Adobe Illustrator 18.1.1, SVG Export Plug-In . SVG Version: 6.00 Build 0)  -->
<svg version="1.1" id="Capa_1" xmlns="http://www.w3.org/2000/svg" xmlns:xlink="http://www.w3.org/1999/xlink" x="0px" y="0px"
	 viewBox="0 0 248.375 248.375" style="enable-background:new 0 0 248.375 248.375;" xml:space="preserve">
<g>
	<g>
		<path style="fill:#010002;" d="M205.194,173.955c-11.02-4.727-23.567-8.398-36.997-10.922
			c17.514-16.344,28.854-41.864,28.854-70.572c0-49.234-33.222-89.293-74.053-89.293c-40.836,0-74.053,40.053-74.053,89.293
			c0,28.952,11.536,54.652,29.306,70.974c-12.695,2.513-24.585,6.021-35.071,10.519C5.608,190.071,0,211.881,0,223.45
			c0,12.015,9.741,21.756,21.756,21.756h204.862c12.015,0,21.756-9.741,21.756-21.756
			C248.375,211.881,242.767,190.071,205.194,173.955z M70.697,92.461c0-37.296,23.415-67.537,52.297-67.537
			S175.29,55.16,175.29,92.461c0,33.858-19.32,61.82-44.486,66.699c-2.208-0.06-4.406-0.147-6.625-0.147
			c-2.937,0-5.847,0.092-8.757,0.196C90.142,154.456,70.697,126.428,70.697,92.461z M21.745,223.45
			c0-20.418,40.407-40.108,92.149-42.446c2.991,0.446,6.016,0.745,9.1,0.745c3.176,0,6.288-0.326,9.361-0.794
			c52.743,1.898,94.264,21.8,94.264,42.495H21.745z"/>
	</g>
</g>
<g>
</g>
<g>
</g>
<g>
</g>
<g>
</g>
<g>
</g>
<g>
</g>
<g>
</g>
<g>
</g>
<g>
</g>
<g>
</g>
<g>
</g>
<g>
</g>
<g>
</g>
<g>
</g>
<g>
</g>
</svg>
